<?xml version="1.0" encoding="UTF-8"?>
<svg version="1.1" xmlns="http://www.w3.org/2000/svg" width="1600" height="1600">
<path d="M0 0 C1.4533374 0.80800049 1.4533374 0.80800049 2.93603516 1.63232422 C7.65925973 4.27026509 12.36526352 6.93718739 17.0625 9.62109375 C23.47079374 13.27944777 29.92066801 16.86116523 36.375 20.4375 C45.0943402 25.27221868 53.80422968 30.12301077 62.5 35 C71.15543429 39.85370018 79.82300024 44.68496009 88.5 49.5 C98.20680092 54.88649708 107.89919228 60.29796246 117.58154297 65.72827148 C125.25116386 70.02724811 132.93587244 74.29852926 140.625 78.5625 C148.93702349 83.17292761 157.231271 87.81236978 165.5 92.5 C177.14467263 99.10040388 188.8450369 105.59881964 200.55175781 112.08837891 C215.91261981 120.60406493 231.26331509 129.13722044 246.58203125 137.72851562 C254.25146244 142.02745908 261.93603144 146.29861743 269.625 150.5625 C277.93702349 155.17292761 286.231271 159.81236978 294.5 164.5 C307.28797586 171.74844812 320.14331564 178.87434613 333 186 C346.79752668 193.64710377 360.58282675 201.31208239 374.30664062 209.09082031 C385.01858736 215.15550966 395.78577596 221.12031339 406.55175781 227.08837891 C426.09002481 237.91991605 445.59903462 248.80237185 465.08398438 259.72949219 C476.87696533 266.342065 488.67853977 272.93845401 500.5 279.5 C503.8725378 281.37344255 507.24491473 283.24717419 510.6171875 285.12109375 C512.89273918 286.38499717 515.16878986 287.64800254 517.4453125 288.91015625 C520.79869847 290.77017785 524.14958481 292.6346337 527.5 294.5 C528.99370117 295.32661133 528.99370117 295.32661133 530.51757812 296.16992188 C551.83952098 308.06350055 570.16774694 322.56611579 578.140625 346.5546875 C580.3741405 355.50905417 581.29520845 364.2500985 581.25447559 373.46102619 C581.25768207 374.55431428 581.26088855 375.64760237 581.26419219 376.7740204 C581.27246384 380.42104125 581.26657777 384.06789665 581.26069641 387.71492004 C581.26371838 390.36271324 581.26752754 393.0104948 581.27228898 395.65828437 C581.2810282 401.40673526 581.28237122 407.15515053 581.27878571 412.90360641 C581.27346787 421.45206119 581.27958486 430.00048161 581.28786864 438.54893265 C581.30309573 454.7062579 581.30481504 470.86356746 581.30234561 487.02089838 C581.30051179 499.49903334 581.30227443 511.97716316 581.30657005 524.45529747 C581.30717246 526.24906029 581.30777366 528.04282311 581.30837366 529.83658594 C581.30928093 532.53973172 581.31018959 535.24287751 581.31110601 537.94602329 C581.31953361 563.07321942 581.32387255 588.20041362 581.31969929 613.32761097 C581.31954291 614.27453679 581.31938654 615.22146261 581.31922542 616.19708315 C581.31841966 620.99629843 581.31757389 625.79551371 581.31671212 630.59472898 C581.31654103 631.54784021 581.31636994 632.50095144 581.31619367 633.48294482 C581.31584701 635.41036627 581.31549848 637.33778772 581.31514808 639.26520916 C581.30979098 669.25534964 581.31772178 699.24546071 581.33618164 729.2355957 C581.35690533 762.94292076 581.36762367 796.6502276 581.36360615 830.35755938 C581.36321082 833.95279133 581.36284927 837.54802328 581.36250877 841.14325523 C581.36237268 842.47107512 581.36237268 842.47107512 581.36223383 843.82571966 C581.3610687 857.17883738 581.36770974 870.53193669 581.37832069 883.88504982 C581.39037851 899.07426107 581.39192492 914.26343181 581.37953053 929.45264367 C581.3729083 937.94791348 581.37451828 946.44308636 581.38811904 954.93834838 C581.39637946 960.61977973 581.39364537 966.30113866 581.38214377 971.98256416 C581.37590308 975.21508595 581.37591746 978.44738251 581.38600711 981.67990003 C581.45665332 1006.0069341 579.30409822 1025.6841323 563 1045 C562.47019531 1045.64324219 561.94039062 1046.28648438 561.39453125 1046.94921875 C551.3086986 1058.07215501 536.1152871 1064.78368891 523.10546875 1071.71875 C517.57421288 1074.67291393 512.11890959 1077.74177797 506.6875 1080.875 C498.70783492 1085.47164827 490.68088623 1089.97576966 482.625 1094.4375 C474.1883924 1099.11118719 465.76642804 1103.80813335 457.375 1108.5625 C446.32342853 1114.82403529 435.24330591 1121.03369137 424.15722656 1127.23388672 C418.93706291 1130.15398136 413.71859227 1133.07709832 408.5 1136 C402.22741152 1139.51323852 395.95445881 1143.02581749 389.6796875 1146.53515625 C379.60795878 1152.16934113 369.54338657 1157.81542249 359.5 1163.5 C348.40527296 1169.77963839 337.28386607 1176.01100698 326.15722656 1182.23388672 C320.93706291 1185.15398136 315.71859227 1188.07709832 310.5 1191 C304.22741152 1194.51323852 297.95445881 1198.02581749 291.6796875 1201.53515625 C281.60795878 1207.16934113 271.54338657 1212.81542249 261.5 1218.5 C250.40527296 1224.77963839 239.28386607 1231.01100698 228.15722656 1237.23388672 C222.93706291 1240.15398136 217.71859227 1243.07709832 212.5 1246 C206.22741152 1249.51323852 199.95445881 1253.02581749 193.6796875 1256.53515625 C183.60795878 1262.16934113 173.54338657 1267.81542249 163.5 1273.5 C152.40527296 1279.77963839 141.28386607 1286.01100698 130.15722656 1292.23388672 C124.93706291 1295.15398136 119.71859227 1298.07709832 114.5 1301 C108.22741152 1304.51323852 101.95445881 1308.02581749 95.6796875 1311.53515625 C85.60795878 1317.16934113 75.54338657 1322.81542249 65.5 1328.5 C54.40527296 1334.77963839 43.28386607 1341.01100698 32.15722656 1347.23388672 C27.97664124 1349.57245417 23.79706788 1351.9128237 19.61816406 1354.25439453 C17.54557282 1355.41466915 15.47200947 1356.57320907 13.39746094 1357.72998047 C8.04090617 1360.71958762 2.70598755 1363.74052857 -2.6015625 1366.81640625 C-24.9032888 1379.66889443 -46.89086187 1387.84558282 -73 1381.5 C-81.13268504 1378.89359984 -88.5413874 1375.09020691 -96 1371 C-96.9698584 1370.46938965 -97.9397168 1369.9387793 -98.93896484 1369.39208984 C-105.82138852 1365.61406066 -112.6778913 1361.79087769 -119.52490234 1357.94921875 C-122.844005 1356.08749923 -126.16565979 1354.23043059 -129.48828125 1352.375 C-140.4575449 1346.24609298 -151.40601267 1340.08112172 -162.34130859 1333.8918457 C-172.49020783 1328.15064205 -182.66601649 1322.45774502 -192.84277344 1316.76611328 C-199.10328908 1313.26405868 -205.36148612 1309.75786247 -211.62011719 1306.25244141 C-216.85275048 1303.32187215 -222.08594222 1300.39230956 -227.3203125 1297.46484375 C-238.34170521 1291.2994112 -249.35045319 1285.1126603 -260.34082031 1278.89208984 C-270.48992675 1273.15088304 -280.66585758 1267.4578339 -290.84277344 1261.76611328 C-297.10328908 1258.26405868 -303.36148612 1254.75786247 -309.62011719 1251.25244141 C-314.85275048 1248.32187215 -320.08594222 1245.39230956 -325.3203125 1242.46484375 C-336.34170521 1236.2994112 -347.35045319 1230.1126603 -358.34082031 1223.89208984 C-368.48992675 1218.15088304 -378.66585758 1212.4578339 -388.84277344 1206.76611328 C-395.10328908 1203.26405868 -401.36148612 1199.75786247 -407.62011719 1196.25244141 C-412.85275048 1193.32187215 -418.08594222 1190.39230956 -423.3203125 1187.46484375 C-434.34170521 1181.2994112 -445.35045319 1175.1126603 -456.34082031 1168.89208984 C-466.48992675 1163.15088304 -476.66585758 1157.4578339 -486.84277344 1151.76611328 C-493.10328908 1148.26405868 -499.36148612 1144.75786247 -505.62011719 1141.25244141 C-510.85275048 1138.32187215 -516.08594222 1135.39230956 -521.3203125 1132.46484375 C-532.34170521 1126.2994112 -543.35045319 1120.1126603 -554.34082031 1113.89208984 C-564.48992675 1108.15088304 -574.66585758 1102.4578339 -584.84277344 1096.76611328 C-591.09900551 1093.26645485 -597.35326472 1089.76326963 -603.60693359 1086.2590332 C-608.9119368 1083.28688289 -614.21936701 1080.31921445 -619.53125 1077.359375 C-625.69650401 1073.92215452 -631.85265915 1070.46915398 -638 1067 C-638.85190918 1066.52014648 -639.70381836 1066.04029297 -640.58154297 1065.54589844 C-661.17205353 1053.89529206 -678.37653697 1039.79424161 -685 1016 C-686.7377459 1008.87885144 -687.2906121 1002.1395217 -687.27009296 994.82468414 C-687.27498782 993.73797928 -687.27988267 992.65127441 -687.28492585 991.5316391 C-687.29888775 987.89495563 -687.29875383 984.25841235 -687.29866028 980.6217041 C-687.30581289 977.98602342 -687.31374668 975.35035551 -687.32262725 972.71468115 C-687.3403376 966.98643101 -687.35068614 961.25820448 -687.35616112 955.52993011 C-687.36431674 947.01129259 -687.38380114 938.49270691 -687.40544782 929.97409434 C-687.44593584 913.872254 -687.47299266 897.770408 -687.49588916 881.66853434 C-687.51364589 869.23089484 -687.5349487 856.79326595 -687.55875206 844.3556366 C-687.56215795 842.56808177 -687.56556254 840.78052694 -687.56896585 838.99297211 C-687.57409731 836.2991849 -687.5792299 833.6053977 -687.58436991 830.91161051 C-687.6320674 805.86587918 -687.6756869 780.82014338 -687.71085072 755.77439117 C-687.7121772 754.8302747 -687.71350368 753.88615823 -687.71487036 752.91343216 C-687.72158046 748.12841226 -687.72825129 743.3433923 -687.73490671 738.55837232 C-687.73622856 737.60807588 -687.73755041 736.65777945 -687.73891232 735.67868615 C-687.74158478 733.75695436 -687.74425534 731.83522256 -687.746924 729.91349076 C-687.78852572 700.0243272 -687.84345236 670.13521425 -687.90893555 640.24609375 C-687.98250932 606.65340388 -688.04595781 573.06071672 -688.0945732 539.46798086 C-688.09979421 535.88361704 -688.10504967 532.29925327 -688.11032677 528.71488953 C-688.11161919 527.83235184 -688.1129116 526.94981415 -688.11424319 526.04053289 C-688.13393528 512.73463004 -688.16151556 499.42875846 -688.19312477 486.12287903 C-688.22908271 470.98166639 -688.25440929 455.84047846 -688.26570032 440.69922644 C-688.27232592 432.23346504 -688.28722964 423.7678158 -688.31428096 415.3020945 C-688.33153878 409.63645893 -688.33764843 403.97087969 -688.33496332 398.30521872 C-688.33374165 395.08412176 -688.33877582 391.86326389 -688.35405228 388.64219743 C-688.47457274 361.98638055 -686.26164612 338.10034883 -667.5390625 317.51953125 C-661.06577184 311.09603513 -654.58179316 306.29599206 -646.5625 301.9375 C-645.06565674 301.10786743 -645.06565674 301.10786743 -643.53857422 300.26147461 C-641.42863051 299.0921854 -639.31660853 297.92663935 -637.20263672 296.76464844 C-633.03210671 294.46669212 -628.88013485 292.13639543 -624.72827148 289.80493164 C-621.59406981 288.04513325 -618.45754955 286.28953701 -615.3203125 284.53515625 C-609.04554116 281.02581748 -602.77261364 277.51319364 -596.5 274 C-594.41667499 272.83331846 -592.33334166 271.6666518 -590.25 270.5 C-588.703125 269.63375 -588.703125 269.63375 -587.125 268.75 C-527.75 235.5 -527.75 235.5 -524.62451172 233.74975586 C-522.54277268 232.58396248 -520.46106691 231.41810968 -518.37939453 230.25219727 C-513.14694077 227.3216794 -507.91389914 224.39222084 -502.6796875 221.46484375 C-492.64855394 215.85327585 -482.62553954 210.22843231 -472.625 204.5625 C-463.12877712 199.18317001 -453.59293401 193.87735184 -444.04736328 188.58618164 C-436.84572138 184.59080648 -429.66407687 180.56231174 -422.5 176.5 C-413.04633122 171.13940011 -403.55202183 165.85462749 -394.046875 160.5859375 C-386.84541613 156.59060758 -379.66391868 152.56222204 -372.5 148.5 C-364.19118718 143.78857821 -355.85405883 139.13070762 -347.5 134.5 C-338.16154199 129.32305927 -328.84809824 124.10491577 -319.55810547 118.84155273 C-309.44481683 113.11337066 -299.30133416 107.43948497 -289.15722656 101.76611328 C-283.93706289 98.84601863 -278.71861321 95.92286434 -273.5 93 C-271.41667499 91.83331846 -269.33334166 90.6666518 -267.25 89.5 C-266.21875 88.9225 -265.1875 88.345 -264.125 87.75 C-154.75 26.5 -154.75 26.5 -151.62353516 24.74926758 C-149.54498466 23.58522081 -147.46653376 22.4209962 -145.38818359 21.2565918 C-140.10748475 18.29835738 -134.82496885 15.34345187 -129.5390625 12.39453125 C-127.4010147 11.20056913 -125.26299362 10.00655914 -123.125 8.8125 C-122.08553223 8.23306641 -121.04606445 7.65363281 -119.97509766 7.05664062 C-115.19624294 4.3846579 -110.43922161 1.68726528 -105.734375 -1.11328125 C-68.87506487 -23.05204742 -36.84551402 -20.49371921 0 0 Z " fill="#3848AB" transform="translate(853,117)"/>
<path d="M0 0 C81.00839404 -1.8154101 163.17968381 14.61690801 234.59472656 53.80566406 C237.03770584 55.14186796 239.49220819 56.45499232 241.94873047 57.76611328 C252.97521396 63.68909093 263.55143902 70.08891921 273.92919922 77.08251953 C274.61498047 77.54158691 275.30076172 78.0006543 276.00732422 78.47363281 C284.67519754 84.28819539 293.09926617 90.34048487 301.29638672 96.80126953 C303.00951112 98.1455394 304.73389082 99.47430762 306.46044922 100.80126953 C312.96958269 105.82542959 319.21674332 110.98730342 325.23388672 116.59814453 C326.64389045 117.89780014 328.05922463 119.1930521 329.52026367 120.43505859 C336.15589726 126.07840647 342.27348672 132.2407245 348.4284668 138.39648438 C350.35364624 140.31948135 352.28668953 142.23432527 354.22021484 144.14892578 C361.25950301 151.15657606 367.77721678 158.27515779 373.92919922 166.08251953 C374.85184872 167.17296468 375.78150399 168.25757581 376.72216797 169.33251953 C388.15798088 182.46598166 398.28073297 196.66407164 407.74267578 211.27099609 C408.9993507 213.18962323 410.28610644 215.08564342 411.57763672 216.98095703 C412.42434607 218.24373978 413.27071265 219.50675245 414.11669922 220.77001953 C414.71575073 221.63494019 414.71575073 221.63494019 415.3269043 222.51733398 C417.97545245 226.52748074 417.97545245 226.52748074 417.76025391 229.10986328 C416.67735937 231.68030624 415.58637447 232.2444153 413.15185547 233.57080078 C412.34224365 234.02165039 411.53263184 234.4725 410.69848633 234.93701172 C409.80524658 235.4181543 408.91200684 235.89929688 407.99169922 236.39501953 C406.05623796 237.46821921 404.12136805 238.54248585 402.18701172 239.61767578 C401.1625293 240.18244629 400.13804687 240.7472168 399.08251953 241.32910156 C393.80537474 244.2634817 388.58948842 247.30280147 383.36669922 250.33251953 C370.75585407 257.61970029 358.11145048 264.8475787 345.46142578 272.06640625 C340.19872002 275.06985129 334.93802736 278.07681918 329.67718506 281.08352661 C326.7612725 282.75000235 323.84522924 284.41624935 320.92919922 286.08251953 C319.76253193 286.7491851 318.59586526 287.41585177 317.42919922 288.08251953 C305.76253255 294.7491862 294.09586589 301.41585286 282.42919922 308.08251953 C281.85177979 308.41247421 281.27436035 308.74242889 280.67944336 309.0823822 C279.51196539 309.74951101 278.34448492 310.41663544 277.17700195 311.08375549 C274.27272765 312.74331551 271.36850554 314.40296671 268.46435547 316.06274414 C263.06697958 319.14733839 257.66924869 322.23130321 252.27001953 325.31265259 C249.75944029 326.74550386 247.2490969 328.17876805 244.73876953 329.61206055 C242.99778636 330.60586786 241.25646837 331.59908856 239.51513672 332.59228516 C238.43490234 333.20910156 237.35466797 333.82591797 236.24169922 334.46142578 C235.19755859 335.0532666 234.15341797 335.64510742 233.07763672 336.25488281 C230.8937202 337.52262467 228.73336333 338.83149227 226.59326172 340.171875 C225.52849609 340.83203613 224.46373047 341.49219727 223.36669922 342.17236328 C222.41666016 342.77814209 221.46662109 343.3839209 220.48779297 344.00805664 C217.92919922 345.08251953 217.92919922 345.08251953 215.70117188 344.41210938 C213.22255274 342.55229127 211.93988574 340.39755852 210.30419922 337.77001953 C202.88167051 326.28636606 194.40314262 315.93006569 184.92919922 306.08251953 C184.40922363 305.54062988 183.88924805 304.99874023 183.35351562 304.44042969 C176.28178503 297.11347874 169.02953428 290.28197596 160.92919922 284.08251953 C160.37006836 283.65229492 159.8109375 283.22207031 159.23486328 282.77880859 C145.33301935 272.13910295 130.69791297 263.63772576 114.92919922 256.08251953 C114.01009766 255.63263672 113.09099609 255.18275391 112.14404297 254.71923828 C68.84710525 234.17494171 15.68920047 229.00693144 -31.07080078 239.08251953 C-31.94994141 239.26443848 -32.82908203 239.44635742 -33.73486328 239.63378906 C-66.13234925 246.47910379 -96.78366193 261.0452673 -123.07080078 281.08251953 C-123.68213867 281.54432617 -124.29347656 282.00613281 -124.92333984 282.48193359 C-141.02629017 294.75517149 -155.95797913 309.03055589 -167.87646484 325.44384766 C-169.07313499 327.08572216 -170.29938785 328.70168741 -171.53173828 330.31689453 C-188.59039329 353.00793385 -201.12565709 379.59353476 -208.07080078 407.08251953 C-208.41449707 408.43821045 -208.41449707 408.43821045 -208.76513672 409.82128906 C-209.47049064 412.6539552 -210.15206201 415.49099668 -210.82080078 418.33251953 C-211.0197998 419.17065186 -211.21879883 420.00878418 -211.42382812 420.87231445 C-214.68074655 435.40543931 -215.44915967 449.75088536 -215.38330078 464.58251953 C-215.38114563 465.45958557 -215.37899048 466.33665161 -215.37677002 467.24029541 C-215.32124021 481.36829882 -214.71447364 495.16971218 -212.07080078 509.08251953 C-211.87744141 510.1140918 -211.68408203 511.14566406 -211.48486328 512.20849609 C-207.17926036 534.36773333 -199.82098225 555.24055975 -189.07080078 575.08251953 C-188.68811035 575.80632813 -188.30541992 576.53013672 -187.91113281 577.27587891 C-164.8641896 620.86163366 -127.6282838 655.91851181 -83.16113281 677.08251953 C-81.7876765 677.73957128 -80.41865346 678.40598713 -79.0546875 679.08251953 C-50.45470085 693.24763988 -18.07055842 699.54334708 13.67919922 699.33251953 C14.51303131 699.32941772 15.3468634 699.32631592 16.20596313 699.32312012 C63.42825769 699.11730182 111.39553296 686.32654194 149.92919922 658.08251953 C150.81816895 657.44975098 150.81816895 657.44975098 151.72509766 656.80419922 C162.23388212 649.32202905 171.69606812 641.07771153 180.92919922 632.08251953 C181.86763672 631.18404297 182.80607422 630.28556641 183.77294922 629.35986328 C197.10666308 616.37595364 208.26103999 600.95413928 217.92919922 585.08251953 C233.16231383 592.40984048 247.86960311 600.80216321 262.6315918 609.02441406 C270.90217391 613.63024643 279.1928508 618.19962225 287.48291016 622.77026367 C288.10639343 623.11401535 288.72987671 623.45776703 289.37225342 623.81193542 C290.64376911 624.51297171 291.91529424 625.21399088 293.18682861 625.91499329 C297.59221309 628.34410858 301.99551733 630.77696421 306.39794922 633.21142578 C308.84570994 634.56457268 311.29363637 635.91741931 313.74169922 637.27001953 C314.34488983 637.60331268 314.94808044 637.93660583 315.56954956 638.27999878 C323.79085316 642.82074292 332.03661759 647.31397901 340.30419922 651.77001953 C348.93466621 656.42168531 357.4787438 661.20809196 365.99609375 666.06323242 C374.24372782 670.74259685 382.59812917 675.20992474 390.97070312 679.65963745 C401.43624567 685.22656471 411.73097581 691.0414537 421.92919922 697.08251953 C420.06473206 707.10513853 411.63725947 716.76606503 406.05419922 725.08251953 C405.34948486 726.13487793 404.64477051 727.18723633 403.91870117 728.27148438 C399.12921658 735.38643843 394.2311214 742.33816264 388.92919922 749.08251953 C388.07436715 750.19138188 387.22024052 751.30078831 386.36669922 752.41064453 C381.69117591 758.46003818 376.89587925 764.39449575 371.92919922 770.20751953 C371.27310669 770.97684814 371.27310669 770.97684814 370.60375977 771.76171875 C362.20948904 781.49058674 353.38719714 790.79248753 344.28491211 799.85717773 C342.72830533 801.4083668 341.1771975 802.96491345 339.62646484 804.52197266 C334.23433827 809.91838121 328.77166878 815.17046306 322.92919922 820.08251953 C321.98790161 820.88387329 321.98790161 820.88387329 321.02758789 821.70141602 C310.03293259 831.01357063 298.61606113 839.66233285 286.92919922 848.08251953 C286.02041016 848.74638672 285.11162109 849.41025391 284.17529297 850.09423828 C254.32150833 871.5370436 220.76851397 889.51216987 186.28173828 902.19628906 C184.24095598 902.96507692 182.23590871 903.77759458 180.23388672 904.64111328 C114.13910035 932.93458911 35.723205 939.23649798 -35.07080078 931.08251953 C-37.15010601 930.86261428 -39.22952619 930.64379208 -41.30908203 930.42626953 C-91.52708018 924.92658003 -142.72235888 910.44096587 -187.57080078 886.91064453 C-190.51511062 885.37276841 -193.48632038 883.92573413 -196.48461914 882.49755859 C-204.84786988 878.46702449 -212.83696469 873.80927166 -220.82080078 869.08251953 C-221.94526611 868.41800781 -223.06973145 867.75349609 -224.22827148 867.06884766 C-234.78781459 860.76427272 -244.99224749 853.99124721 -254.94580078 846.77001953 C-255.71118164 846.21515869 -256.4765625 845.66029785 -257.26513672 845.08862305 C-278.66586478 829.48819644 -298.20578425 812.01563504 -316.94580078 793.33251953 C-317.44425507 792.83674408 -317.94270935 792.34096863 -318.45626831 791.83016968 C-324.21460766 786.09531681 -329.81513762 780.28527359 -335.07080078 774.08251953 C-335.94780086 773.0728799 -336.82536704 772.0637316 -337.70361328 771.05517578 C-367.19510286 736.61762134 -391.32559073 698.19912105 -409.83007812 656.85205078 C-410.81099117 654.66246447 -411.80466248 652.48009687 -412.80908203 650.30126953 C-422.18753031 629.37808352 -429.02408647 607.16340596 -435.07080078 585.08251953 C-435.34375977 584.08816895 -435.61671875 583.09381836 -435.89794922 582.06933594 C-439.53104193 568.56761378 -442.07856245 554.9335525 -444.32080078 541.14501953 C-444.44585999 540.37877258 -444.57091919 539.61252563 -444.69976807 538.82305908 C-447.03354833 524.39143928 -449.10709686 509.82906599 -449.69580078 495.20751953 C-449.73157227 494.32209473 -449.76734375 493.43666992 -449.80419922 492.52441406 C-451.13501573 454.54544566 -449.00749488 417.47440357 -442.07080078 380.08251953 C-441.87760254 379.02709961 -441.6844043 377.97167969 -441.48535156 376.88427734 C-434.79263691 340.94768549 -423.30106371 306.26839414 -408.07080078 273.08251953 C-407.34802001 271.47320045 -406.62536027 269.86382701 -405.90283203 268.25439453 C-400.0644605 255.4297095 -393.16419441 243.24773167 -386.07080078 231.08251953 C-385.55582031 230.19322754 -385.04083984 229.30393555 -384.51025391 228.38769531 C-372.12661815 207.05899447 -357.5990658 187.41829036 -342.00830078 168.33251953 C-341.49154785 167.69636719 -340.97479492 167.06021484 -340.44238281 166.40478516 C-331.3470897 155.38457703 -321.33125919 145.15624319 -311.23413086 135.06054688 C-309.50035135 133.32455998 -307.7747854 131.58066843 -306.04931641 129.83642578 C-299.36203337 123.1159315 -292.49737966 116.98567808 -285.07080078 111.08251953 C-283.90654864 110.08790465 -282.74907854 109.08523123 -281.60205078 108.07080078 C-231.04743776 63.37865865 -166.84049056 32.52878626 -102.07080078 15.08251953 C-100.82145752 14.74293213 -100.82145752 14.74293213 -99.546875 14.39648438 C-73.34602392 7.39512587 -46.03943764 3.5280137 -19.07080078 1.08251953 C-18.35150391 1.01194336 -17.63220703 0.94136719 -16.89111328 0.86865234 C-11.26415687 0.32605298 -5.64680339 0.15174269 0 0 Z " fill="#FEFEFE" transform="translate(783.07080078125,332.91748046875)"/>
<path d="M0 0 C1.4533374 0.80800049 1.4533374 0.80800049 2.93603516 1.63232422 C7.65925973 4.27026509 12.36526352 6.93718739 17.0625 9.62109375 C23.47079374 13.27944777 29.92066801 16.86116523 36.375 20.4375 C45.0943402 25.27221868 53.80422968 30.12301077 62.5 35 C71.15543429 39.85370018 79.82300024 44.68496009 88.5 49.5 C98.20680092 54.88649708 107.89919228 60.29796246 117.58154297 65.72827148 C125.25116386 70.02724811 132.93587244 74.29852926 140.625 78.5625 C148.93702349 83.17292761 157.231271 87.81236978 165.5 92.5 C177.14467263 99.10040388 188.8450369 105.59881964 200.55175781 112.08837891 C215.91261981 120.60406493 231.26331509 129.13722044 246.58203125 137.72851562 C254.25146244 142.02745908 261.93603144 146.29861743 269.625 150.5625 C277.93702349 155.17292761 286.231271 159.81236978 294.5 164.5 C307.28797586 171.74844812 320.14331564 178.87434613 333 186 C346.79752668 193.64710377 360.58282675 201.31208239 374.30664062 209.09082031 C385.01858736 215.15550966 395.78577596 221.12031339 406.55175781 227.08837891 C426.09002481 237.91991605 445.59903462 248.80237185 465.08398438 259.72949219 C476.87696533 266.342065 488.67853977 272.93845401 500.5 279.5 C503.8725378 281.37344255 507.24491473 283.24717419 510.6171875 285.12109375 C512.89273918 286.38499717 515.16878986 287.64800254 517.4453125 288.91015625 C520.79869847 290.77017785 524.14958481 292.6346337 527.5 294.5 C528.99370117 295.32661133 528.99370117 295.32661133 530.51757812 296.16992188 C548.50931082 306.20587824 548.50931082 306.20587824 556.0625 313.125 C556.96097656 313.93195313 557.85945313 314.73890625 558.78515625 315.5703125 C561.00178364 318.00195666 562.01968862 319.8873729 563 323 C552.82930438 328.92202697 542.63083448 334.78899091 532.375 340.5625 C525.56641257 344.39648923 518.78571069 348.26807978 512.0625 352.25 C504.87015626 356.50924778 497.60636295 360.62633085 490.31103516 364.70605469 C478.88200857 371.10515049 467.45404146 377.50540408 456.1875 384.1875 C448.27839919 388.87780268 440.25201692 393.34104754 432.20214844 397.78417969 C423.16624802 402.77295841 414.2192953 407.77667723 405.5546875 413.39453125 C402.14470653 415.53750094 398.62921449 417.43864111 395.078125 419.3359375 C391.37538349 421.33767339 387.72162197 423.41997367 384.0625 425.5 C378.32255365 428.75892649 372.52543558 431.79919371 366.55078125 434.61328125 C363.74582956 436.13817841 361.47421171 437.98921207 359 440 C357.46049105 440.93479185 355.8984802 441.83392492 354.3125 442.6875 C353.54550781 443.10386719 352.77851562 443.52023437 351.98828125 443.94921875 C350.66661631 444.64770179 349.33706448 445.33146776 348 446 C347.52433594 445.06994141 347.52433594 445.06994141 347.0390625 444.12109375 C335.20999758 421.67201198 319.05881737 401.03760096 302.55078125 381.85400391 C301.41474511 380.49583979 300.30647793 379.11431768 299.21484375 377.72021484 C292.78280354 369.57814121 285.60509234 362.3002774 278.25341797 354.99267578 C276.1288432 352.8788238 274.01517939 350.75448458 271.90234375 348.62890625 C265.27086793 341.99131681 258.641662 335.57562157 251.24829102 329.78295898 C249.00756535 328.00599954 246.9077136 326.13269641 244.8125 324.1875 C238.26347183 318.30506934 231.09447508 313.19661208 224 308 C223.41589355 307.56929199 222.83178711 307.13858398 222.22998047 306.69482422 C205.26390355 294.20941734 187.43588505 283.17089086 169 273 C168.2565332 272.58766113 167.51306641 272.17532227 166.74707031 271.75048828 C149.95300794 262.48203101 132.40602893 254.87227213 114.52001953 247.97509766 C112.86961684 247.33648999 111.22201202 246.69059256 109.57763672 246.03662109 C97.03725602 241.0603597 84.2612659 237.26189686 71.25 233.75 C70.47907013 233.54135315 69.70814026 233.3327063 68.91384888 233.11773682 C-5.54027393 213.07129058 -85.59850794 210.61871049 -160.64892578 229.41210938 C-162.40566363 229.85138505 -164.1648803 230.28076901 -165.92529297 230.70507812 C-235.06445603 247.4014171 -300.42434476 280.90832708 -354.21240234 327.49951172 C-355.5354282 328.61004394 -356.88367735 329.6906793 -358.24462891 330.75439453 C-366.56015928 337.31402482 -373.97503682 344.67078905 -381.43457031 352.17382812 C-383.62084876 354.3708284 -385.81761938 356.55692678 -388.015625 358.7421875 C-395.47320136 366.19274618 -402.49812217 373.69305285 -409 382 C-409.92232975 383.09071561 -410.85203165 384.17529535 -411.79296875 385.25 C-467.11510721 448.78472345 -500.67208167 530.50265365 -514 613 C-514.15597656 613.96502441 -514.31195312 614.93004883 -514.47265625 615.92431641 C-518.82206813 643.52446951 -519.43337966 671.1306166 -519 699 C-518.98598145 700.06976074 -518.97196289 701.13952148 -518.95751953 702.24169922 C-518.67944926 718.96318265 -516.4661151 735.48184721 -514 752 C-513.89923157 752.68100769 -513.79846313 753.36201538 -513.69464111 754.06365967 C-507.92610305 792.80574309 -498.16225642 835.25591221 -479.94287109 870.15283203 C-478.23200692 873.50456645 -476.8031038 876.98375563 -475.3125 880.4375 C-471.33274302 889.5453157 -466.76659878 898.28330315 -462 907 C-465.04770464 910.2483028 -468.62744261 912.19118367 -472.5 914.3125 C-473.22195557 914.713479 -473.94391113 915.11445801 -474.68774414 915.52758789 C-478.5901287 917.69074813 -482.51036316 919.81962959 -486.4375 921.9375 C-491.9506505 924.92275042 -497.33038327 928.1234867 -502.72436523 931.31689453 C-507.53678953 934.15900882 -512.3847418 936.91209992 -517.3125 939.55078125 C-524.27858345 943.30720125 -531.15543021 947.21479281 -538 951.1875 C-538.81597656 951.66018311 -539.63195312 952.13286621 -540.47265625 952.61987305 C-545.9973559 955.82464714 -551.50176068 959.06260903 -557 962.3125 C-562.32917356 965.45915764 -567.68948418 968.51716573 -573.140625 971.44921875 C-579.47272375 974.88343078 -585.73057267 978.45306688 -592 982 C-592.60779297 982.34321289 -593.21558594 982.68642578 -593.84179688 983.04003906 C-600.51483448 986.81159568 -607.12832139 990.65998731 -613.6875 994.625 C-618.76416655 997.69191068 -623.88510445 1000.62678134 -629.109375 1003.4375 C-637.55921577 1008.0049815 -645.90333828 1012.76046289 -654.1875 1017.62109375 C-655.26104736 1018.25080078 -656.33459473 1018.88050781 -657.44067383 1019.52929688 C-659.5752594 1020.78382134 -661.70796954 1022.04154333 -663.83862305 1023.30273438 C-664.82386963 1023.88216797 -665.80911621 1024.46160156 -666.82421875 1025.05859375 C-667.70166748 1025.57736084 -668.57911621 1026.09612793 -669.4831543 1026.63061523 C-671.93699477 1027.96571963 -674.38659394 1029.02000937 -677 1030 C-678.11355887 1028.02610249 -679.21534261 1026.04556086 -680.3125 1024.0625 C-680.92738281 1022.96035156 -681.54226563 1021.85820313 -682.17578125 1020.72265625 C-686.21317485 1012.82547559 -687.440941 1005.74770006 -687.39314079 996.91649723 C-687.39918949 995.82756946 -687.40523818 994.7386417 -687.41147017 993.61671612 C-687.42809876 989.96638417 -687.42345791 986.31639336 -687.41891479 982.66603088 C-687.42650232 980.02295705 -687.43526915 977.3799109 -687.44547093 974.73684829 C-687.46526194 968.98934922 -687.47396865 963.24191654 -687.47536659 957.49438477 C-687.47747611 948.9471077 -687.49666441 940.39992802 -687.51919528 931.85268345 C-687.55886512 916.58438395 -687.58143882 901.31609498 -687.59674322 886.04775373 C-687.61017773 872.68053979 -687.62914753 859.31334814 -687.6536293 845.94614983 C-687.65524481 845.0593461 -687.65686031 844.17254236 -687.65852476 843.25886579 C-687.66508631 839.65890972 -687.67166848 836.05895368 -687.6782849 832.4589977 C-687.740254 798.68085194 -687.78476794 764.90270269 -687.82150623 731.12452115 C-687.85423338 701.1348173 -687.90249178 671.14517619 -687.96386719 641.15551758 C-688.03278883 607.45259648 -688.09187396 573.74968153 -688.13524354 540.04671711 C-688.13989778 536.45054207 -688.14457627 532.85436706 -688.14926529 529.25819206 C-688.15041121 528.37274157 -688.15155713 527.48729108 -688.15273777 526.57500876 C-688.17018798 513.22460221 -688.19510838 499.87422307 -688.22369003 486.52383614 C-688.25617329 471.33135961 -688.2777833 456.13891036 -688.28521352 440.94640005 C-688.28966992 432.45176349 -688.30235325 423.95723595 -688.32714417 415.46263386 C-688.34288644 409.77771082 -688.3474855 404.09284683 -688.34328749 398.40790378 C-688.34120255 395.17577735 -688.34535715 391.94388646 -688.35973106 388.71178586 C-688.47246593 362.03135315 -686.2810166 338.12164184 -667.5390625 317.51953125 C-661.06577184 311.09603513 -654.58179316 306.29599206 -646.5625 301.9375 C-645.06565674 301.10786743 -645.06565674 301.10786743 -643.53857422 300.26147461 C-641.42863051 299.0921854 -639.31660853 297.92663935 -637.20263672 296.76464844 C-633.03210671 294.46669212 -628.88013485 292.13639543 -624.72827148 289.80493164 C-621.59406981 288.04513325 -618.45754955 286.28953701 -615.3203125 284.53515625 C-609.04554116 281.02581748 -602.77261364 277.51319364 -596.5 274 C-594.41667499 272.83331846 -592.33334166 271.6666518 -590.25 270.5 C-588.703125 269.63375 -588.703125 269.63375 -587.125 268.75 C-527.75 235.5 -527.75 235.5 -524.62451172 233.74975586 C-522.54277268 232.58396248 -520.46106691 231.41810968 -518.37939453 230.25219727 C-513.14694077 227.3216794 -507.91389914 224.39222084 -502.6796875 221.46484375 C-492.64855394 215.85327585 -482.62553954 210.22843231 -472.625 204.5625 C-463.12877712 199.18317001 -453.59293401 193.87735184 -444.04736328 188.58618164 C-436.84572138 184.59080648 -429.66407687 180.56231174 -422.5 176.5 C-413.04633122 171.13940011 -403.55202183 165.85462749 -394.046875 160.5859375 C-386.84541613 156.59060758 -379.66391868 152.56222204 -372.5 148.5 C-364.19118718 143.78857821 -355.85405883 139.13070762 -347.5 134.5 C-338.16154199 129.32305927 -328.84809824 124.10491577 -319.55810547 118.84155273 C-309.44481683 113.11337066 -299.30133416 107.43948497 -289.15722656 101.76611328 C-283.93706289 98.84601863 -278.71861321 95.92286434 -273.5 93 C-271.41667499 91.83331846 -269.33334166 90.6666518 -267.25 89.5 C-266.21875 88.9225 -265.1875 88.345 -264.125 87.75 C-154.75 26.5 -154.75 26.5 -151.62353516 24.74926758 C-149.54498466 23.58522081 -147.46653376 22.4209962 -145.38818359 21.2565918 C-140.10748475 18.29835738 -134.82496885 15.34345187 -129.5390625 12.39453125 C-127.4010147 11.20056913 -125.26299362 10.00655914 -123.125 8.8125 C-122.08553223 8.23306641 -121.04606445 7.65363281 -119.97509766 7.05664062 C-115.19624294 4.3846579 -110.43922161 1.68726528 -105.734375 -1.11328125 C-68.87506487 -23.05204742 -36.84551402 -20.49371921 0 0 Z " fill="#5D6ABF" transform="translate(853,117)"/>
<path d="M0 0 C3.24900995 2.96648734 5.18844507 5.87735944 7.25 9.75 C22.22501762 36.89383911 41.5163641 62.7197403 62.62109375 85.41015625 C64.47490707 87.42834711 66.25944284 89.47278216 68.0390625 91.5546875 C72.57441008 96.75422007 77.45672374 101.60664106 82.3425293 106.47290039 C83.93458966 108.05959946 85.5212299 109.65157742 87.10742188 111.24414062 C92.56566091 116.70621457 98.10230221 122.00964033 104 127 C105.44632812 128.2684375 105.44632812 128.2684375 106.921875 129.5625 C132.39519913 151.5174092 160.66509867 169.68984163 190 186 C190.71833008 186.4031543 191.43666016 186.80630859 192.17675781 187.22167969 C211.56876756 198.05866275 232.18489069 206.41204115 253.05419922 213.93652344 C255.14268669 214.69049753 257.22728812 215.45527554 259.30908203 216.22753906 C267.60678309 219.26999077 275.94983664 221.77215633 284.5 224 C285.47277893 224.2552948 285.47277893 224.2552948 286.46520996 224.51574707 C325.72746028 234.81510364 365.94374447 241.2123619 406.625 241.25 C407.39434875 241.25100708 408.16369751 241.25201416 408.95635986 241.25305176 C426.73470255 241.23758877 444.33350548 239.91595317 462 238 C462.67138 237.92738953 463.34276001 237.85477905 464.03448486 237.77996826 C518.59212027 231.80281483 571.00545497 215.65749012 620 191 C620.96744141 190.51950195 621.93488281 190.03900391 622.93164062 189.54394531 C644.42039107 178.84304025 664.65884533 166.20574464 684 152 C684.67998047 151.5040332 685.35996094 151.00806641 686.06054688 150.49707031 C695.36812085 143.69336483 704.30282219 136.5664244 713 129 C713.73605469 128.36449219 714.47210937 127.72898437 715.23046875 127.07421875 C717.16465518 125.39483532 719.08295873 123.69892256 721 122 C721.70479492 121.37931641 722.40958984 120.75863281 723.13574219 120.11914062 C729.46213941 114.49509187 735.53100202 108.65524723 741.51391602 102.67138672 C743.05923066 101.1282647 744.61240446 99.59335694 746.16601562 98.05859375 C751.83120633 92.42450049 757.1001419 86.67607915 762.06640625 80.40722656 C763.94701566 78.06596283 765.90989707 75.83929928 767.9375 73.625 C772.96637051 68.01206776 777.4969158 62.03504508 782 56 C782.48065918 55.35981934 782.96131836 54.71963867 783.45654297 54.06005859 C792.06924082 42.54207386 799.88721107 30.57530404 807.56640625 18.421875 C808.7104301 16.6142621 809.85489547 14.80692849 811 13 C811.42265137 12.33033203 811.84530273 11.66066406 812.28076172 10.97070312 C814.76527199 7.11736401 814.76527199 7.11736401 817 6 C819.35546875 7.07421875 819.35546875 7.07421875 822.1875 8.6875 C823.1775 9.244375 824.1675 9.80125 825.1875 10.375 C826.79629896 11.30452829 828.40236838 12.23890623 830 13.1875 C834.21835391 15.68726528 838.38957955 17.38230861 843 19 C843 19.66 843 20.32 843 21 C843.72058594 21.27972656 844.44117188 21.55945312 845.18359375 21.84765625 C847.87167434 22.94749505 850.4612837 24.14694292 853.0625 25.4375 C853.89910156 25.84871094 854.73570313 26.25992187 855.59765625 26.68359375 C858 28 858 28 859.94921875 29.48046875 C862.4185458 31.3101225 864.97951263 32.54717574 867.75 33.875 C871.24385454 35.58825156 874.62101172 37.3033908 877.875 39.4375 C883.6127685 43.16222787 889.86586923 45.99698006 896 49 C898.00091075 49.99817643 900.00121654 50.99757061 902 52 C902 52.66 902 53.32 902 54 C902.84884766 54.18175781 902.84884766 54.18175781 903.71484375 54.3671875 C904.44832031 54.53476563 905.18179687 54.70234375 905.9375 54.875 C907.03384766 55.11863281 907.03384766 55.11863281 908.15234375 55.3671875 C910 56 910 56 911 58 C913.30965848 59.05352843 915.6429774 60.05719096 918 61 C918 61.66 918 62.32 918 63 C919.0725 63.268125 920.145 63.53625 921.25 63.8125 C924.71275475 64.909039 926.23328159 65.83850124 929 68 C930.64689929 68.6916977 932.29465671 69.38152522 933.94921875 70.0546875 C937.29089758 71.59504231 940.35629258 73.58058702 943.48828125 75.50390625 C946.90543403 77.53931763 950.41745387 79.27507038 954 81 C954 81.66 954 82.32 954 83 C954.85464844 83.19142578 954.85464844 83.19142578 955.7265625 83.38671875 C962.11368919 85.10970654 967.55435011 88.33010551 973 92 C974.21860151 92.54509487 975.44837794 93.06581642 976.6875 93.5625 C979.74531883 94.88947798 980.76257547 95.76257547 983 98 C983.928125 98.309375 984.85625 98.61875 985.8125 98.9375 C989.36066267 100.12022089 991.9327992 101.88703945 995 104 C995.99 104.33 996.98 104.66 998 105 C998 105.66 998 106.32 998 107 C999.051875 107.268125 1000.10375 107.53625 1001.1875 107.8125 C1004.60492585 108.87694412 1006.99592446 110.13260169 1010 112 C1010.70125 112.165 1011.4025 112.33 1012.125 112.5 C1014.48241989 113.12864531 1015.29110226 114.29110226 1017 116 C1019.59915538 117.19027984 1019.59915538 117.19027984 1022 118 C1022 118.66 1022 119.32 1022 120 C1022.57234375 120.13277344 1023.1446875 120.26554687 1023.734375 120.40234375 C1025.97650875 120.99380317 1028.08579619 121.73288854 1030.25 122.5625 C1030.95640625 122.83191406 1031.6628125 123.10132813 1032.390625 123.37890625 C1032.92171875 123.58386719 1033.4528125 123.78882813 1034 124 C1034.33 123.34 1034.66 122.68 1035 122 C1033.43225217 131.56326175 1023.53646257 140.606726 1016.0703125 146.19140625 C1006.57491987 152.89347141 996.34534155 158.26024615 986.10546875 163.71875 C980.57421288 166.67291393 975.11890959 169.74177797 969.6875 172.875 C961.70783492 177.47164827 953.68088623 181.97576966 945.625 186.4375 C937.1883924 191.11118719 928.76642804 195.80813335 920.375 200.5625 C909.32342853 206.82403529 898.24330591 213.03369137 887.15722656 219.23388672 C881.93706291 222.15398136 876.71859227 225.07709832 871.5 228 C865.22741152 231.51323852 858.95445881 235.02581749 852.6796875 238.53515625 C842.60795878 244.16934113 832.54338657 249.81542249 822.5 255.5 C811.40527296 261.77963839 800.28386607 268.01100698 789.15722656 274.23388672 C783.93706291 277.15398136 778.71859227 280.07709832 773.5 283 C767.22741152 286.51323852 760.95445881 290.02581749 754.6796875 293.53515625 C744.60795878 299.16934113 734.54338657 304.81542249 724.5 310.5 C713.40527296 316.77963839 702.28386607 323.01100698 691.15722656 329.23388672 C685.93706291 332.15398136 680.71859227 335.07709832 675.5 338 C669.22741152 341.51323852 662.95445881 345.02581749 656.6796875 348.53515625 C646.60795878 354.16934113 636.54338657 359.81542249 626.5 365.5 C615.40527296 371.77963839 604.28386607 378.01100698 593.15722656 384.23388672 C587.93706291 387.15398136 582.71859227 390.07709832 577.5 393 C571.22741152 396.51323852 564.95445881 400.02581749 558.6796875 403.53515625 C548.60795878 409.16934113 538.54338657 414.81542249 528.5 420.5 C517.40527296 426.77963839 506.28386607 433.01100698 495.15722656 439.23388672 C490.97664124 441.57245417 486.79706788 443.9128237 482.61816406 446.25439453 C480.54557282 447.41466915 478.47200947 448.57320907 476.39746094 449.72998047 C471.04090617 452.71958762 465.70598755 455.74052857 460.3984375 458.81640625 C438.0967112 471.66889443 416.10913813 479.84558282 390 473.5 C381.86731496 470.89359984 374.4586126 467.09020691 367 463 C366.0301416 462.46938965 365.0602832 461.9387793 364.06103516 461.39208984 C357.17861148 457.61406066 350.3221087 453.79087769 343.47509766 449.94921875 C340.155995 448.08749923 336.83434021 446.23043059 333.51171875 444.375 C322.5424551 438.24609298 311.59398733 432.08112172 300.65869141 425.8918457 C290.50979217 420.15064205 280.33398351 414.45774502 270.15722656 408.76611328 C263.89671092 405.26405868 257.63851388 401.75786247 251.37988281 398.25244141 C246.14724952 395.32187215 240.91405778 392.39230956 235.6796875 389.46484375 C224.65829479 383.2994112 213.64954681 377.1126603 202.65917969 370.89208984 C192.51007325 365.15088304 182.33414242 359.4578339 172.15722656 353.76611328 C165.89671092 350.26405868 159.63851388 346.75786247 153.37988281 343.25244141 C148.14724952 340.32187215 142.91405778 337.39230956 137.6796875 334.46484375 C126.65829479 328.2994112 115.64954681 322.1126603 104.65917969 315.89208984 C94.51007325 310.15088304 84.33414242 304.4578339 74.15722656 298.76611328 C67.89671092 295.26405868 61.63851388 291.75786247 55.37988281 288.25244141 C50.14724952 285.32187215 44.91405778 282.39230956 39.6796875 279.46484375 C28.65829479 273.2994112 17.64954681 267.1126603 6.65917969 260.89208984 C-3.48992675 255.15088304 -13.66585758 249.4578339 -23.84277344 243.76611328 C-30.10328908 240.26405868 -36.36148612 236.75786247 -42.62011719 233.25244141 C-47.85275048 230.32187215 -53.08594222 227.39230956 -58.3203125 224.46484375 C-69.34170521 218.2994112 -80.35045319 212.1126603 -91.34082031 205.89208984 C-101.48992675 200.15088304 -111.66585758 194.4578339 -121.84277344 188.76611328 C-128.09900551 185.26645485 -134.35326472 181.76326963 -140.60693359 178.2590332 C-145.9119368 175.28688289 -151.21936701 172.31921445 -156.53125 169.359375 C-162.69650401 165.92215452 -168.85265915 162.46915398 -175 159 C-175.85190918 158.52014648 -176.70381836 158.04029297 -177.58154297 157.54589844 C-196.04750086 147.09741508 -213.45832742 134.58606597 -219.9375 113.25 C-220.30836283 111.83761222 -220.66957707 110.42239205 -221 109 C-218.06185997 110.46907001 -217.6713774 112.59447806 -216.375 115.5625 C-215.92898437 116.57441406 -215.48296875 117.58632812 -215.0234375 118.62890625 C-214.68570313 119.41136719 -214.34796875 120.19382812 -214 121 C-206.41814044 117.39349383 -199.25306905 113.39151188 -192.140625 108.93359375 C-188.48191528 106.68102993 -184.74463318 104.63044404 -180.9609375 102.59765625 C-169.38414096 96.35107342 -158.02627411 89.71678268 -146.6887207 83.04882812 C-141.97984722 80.2868965 -137.25642913 77.57521526 -132.453125 74.98046875 C-126.89483173 71.97355579 -121.48025358 68.75141933 -116.0625 65.5 C-109.47666241 61.57400733 -102.90670109 57.83356449 -95.98828125 54.51953125 C-87.27834407 50.09055666 -78.9809693 44.80615977 -70.625 39.75 C-66.46670133 37.24382 -62.22375904 34.92157088 -57.953125 32.61328125 C-50.78113419 28.69524923 -43.71221332 24.58755119 -36.65625 20.46484375 C-24.56250078 13.40812375 -12.32240405 6.64887994 0 0 Z " fill="#283491" transform="translate(390,1025)"/>
<path d="M0 0 C0.88134613 0.00149048 1.76269226 0.00298096 2.67074585 0.0045166 C16.49798816 0.04650612 29.94756875 0.73758497 43.5625 3.3125 C44.39426758 3.46235352 45.22603516 3.61220703 46.08300781 3.76660156 C69.45640388 8.03525978 91.6191339 16.13718607 112.5625 27.3125 C113.23023438 27.66570313 113.89796875 28.01890625 114.5859375 28.3828125 C133.57344034 38.49493087 149.96612256 51.52675495 165.5625 66.3125 C166.1184082 66.83440918 166.67431641 67.35631836 167.24707031 67.89404297 C180.65391835 80.55522498 191.29457313 95.05653631 201.5625 110.3125 C198.25711423 113.06996999 194.97307543 115.34145473 191.203125 117.4140625 C190.17832031 117.98157227 189.15351562 118.54908203 188.09765625 119.13378906 C187.01355469 119.72901367 185.92945313 120.32423828 184.8125 120.9375 C177.35192119 125.07344228 169.90318028 129.21657769 162.5625 133.5625 C161.89750488 133.95614746 161.23250977 134.34979492 160.54736328 134.75537109 C159.22607071 135.53921067 157.90526405 136.32386993 156.58496094 137.109375 C138.66391414 147.77027778 138.66391414 147.77027778 129.5 152.6875 C125.6426856 154.8213335 121.85510475 157.06617775 118.0625 159.3125 C112.55386188 162.57325353 107.0189657 165.74836326 101.3828125 168.78515625 C91.1092595 174.34881169 81.01180892 180.21048882 70.9375 186.125 C62.16633123 191.27130661 53.31071391 196.22222543 44.36303711 201.05395508 C38.14622607 204.42076175 32.02693837 207.91897262 25.94995117 211.53100586 C7.36172613 222.57700874 -11.56357113 233.06824983 -30.40625 243.671875 C-43.64676309 251.12898773 -56.81392822 258.69012554 -69.8125 266.5625 C-73.01838643 268.49455563 -76.26173084 270.32607715 -79.5546875 272.10546875 C-85.13290041 275.13672226 -90.66553365 278.24271051 -96.1875 281.375 C-98.20568481 282.51830748 -100.22391531 283.66153429 -102.2421875 284.8046875 C-103.26538086 285.38444336 -104.28857422 285.96419922 -105.34277344 286.56152344 C-108.37463687 288.27693244 -111.40941223 289.98705962 -114.4453125 291.6953125 C-123.83081762 296.97956239 -133.18419287 302.30447387 -142.45214844 307.79248047 C-148.94969792 311.63335804 -155.52564243 315.32628921 -162.11328125 319.00976562 C-166.76968031 321.61969686 -171.41532398 324.24869499 -176.0625 326.875 C-177.04653809 327.42994141 -178.03057617 327.98488281 -179.04443359 328.55664062 C-183.34921637 330.98686455 -187.64791648 333.4243328 -191.9140625 335.921875 C-192.56294434 336.30013428 -193.21182617 336.67839355 -193.88037109 337.06811523 C-195.55354494 338.04665747 -197.22228547 339.03276945 -198.890625 340.01953125 C-201.4375 341.3125 -201.4375 341.3125 -204.4375 341.3125 C-214.11828612 323.37534861 -221.01440272 304.83255921 -225.375 284.9375 C-225.65738525 283.65617187 -225.93977051 282.37484375 -226.23071289 281.0546875 C-229.66389136 264.55691294 -230.82484818 248.26473209 -230.75 231.4375 C-230.74676727 230.11972565 -230.74676727 230.11972565 -230.74346924 228.77532959 C-230.69336305 216.0295315 -230.20924934 203.79031276 -227.4375 191.3125 C-227.00772028 189.21486264 -226.57804006 187.1172049 -226.1484375 185.01953125 C-223.31992948 171.65740312 -219.75625135 158.89520424 -214.4375 146.3125 C-214.06608887 145.43110352 -213.69467773 144.54970703 -213.31201172 143.64160156 C-201.66828136 116.36309592 -185.91098265 92.79840762 -165.4375 71.3125 C-164.86580078 70.71211914 -164.29410156 70.11173828 -163.70507812 69.49316406 C-128.78907443 33.09257248 -82.9569363 10.68204728 -33.4375 2.3125 C-32.43823486 2.13372314 -31.43896973 1.95494629 -30.40942383 1.77075195 C-20.25842122 0.11228453 -10.2644574 -0.04289559 0 0 Z " fill="#5D6ABF" transform="translate(797.4375,566.6875)"/>
<path d="M0 0 C2.39453125 1.3046875 2.39453125 1.3046875 4.8125 2.875 C7.81500403 4.74824366 10.57418529 6.3371563 13.9375 7.4375 C18.45492436 8.97959265 22.17109187 11.56207145 26.140625 14.171875 C29.75992806 16.48585564 33.50268341 18.49847744 37.29296875 20.515625 C40.85597284 22.46936461 44.28459192 24.61777512 47.7109375 26.80078125 C49.98803557 28.13090677 49.98803557 28.13090677 52.7265625 28.54296875 C53.47679687 28.69378906 54.22703125 28.84460938 55 29 C55.33 29.66 55.66 30.32 56 31 C57.66219757 31.67773258 59.32979301 32.34225322 61 33 C63.77705496 34.71393203 66.47444299 36.52480383 69.18359375 38.34375 C72.06462786 40.03800584 74.80218429 41.05808079 78 42 C78 42.66 78 43.32 78 44 C79.18916016 44.34417969 79.18916016 44.34417969 80.40234375 44.6953125 C85.01696085 46.36880013 89.2320894 48.57750451 93.5625 50.875 C94.39974609 51.30941406 95.23699219 51.74382813 96.09960938 52.19140625 C100.43728757 54.478733 104.22285171 56.84308455 108 60 C109.69108913 60.73386887 111.38372838 61.4657108 113.09765625 62.14453125 C115.9858658 63.44333595 118.56481791 65.17277982 121.203125 66.9140625 C123.11910632 68.16194887 123.11910632 68.16194887 126 69 C126 69.66 126 70.32 126 71 C128.97 71.66 131.94 72.32 135 73 C135 73.66 135 74.32 135 75 C135.721875 75.28875 136.44375 75.5775 137.1875 75.875 C139.79166667 76.91666667 142.39583333 77.95833333 145 79 C145 79.66 145 80.32 145 81 C145.85851562 81.26554688 146.71703125 81.53109375 147.6015625 81.8046875 C151.02910808 83.01023801 154.14173798 84.47244386 157.375 86.125 C158.43460938 86.66382813 159.49421875 87.20265625 160.5859375 87.7578125 C161.38257813 88.16773438 162.17921875 88.57765625 163 89 C163 89.66 163 90.32 163 91 C163.928125 91.20625 164.85625 91.4125 165.8125 91.625 C171.29576422 93.16435901 176.08125775 96.20210847 181 99 C181.66 99.33 182.32 99.66 183 100 C183 100.66 183 101.32 183 102 C183.56589844 102.12117187 184.13179687 102.24234375 184.71484375 102.3671875 C185.44832031 102.53476562 186.18179687 102.70234375 186.9375 102.875 C187.66839844 103.03742188 188.39929688 103.19984375 189.15234375 103.3671875 C191 104 191 104 192 106 C195.33172394 107.72176338 198.69425949 109.32924472 202.09765625 110.90234375 C209.5013286 114.44909389 209.5013286 114.44909389 211 118 C207.04458031 133.95094086 189.13550056 150.43538573 178 162 C177.49823242 162.52368164 176.99646484 163.04736328 176.47949219 163.58691406 C143.34195127 198.00307393 98.51178187 220.49396986 51.75 229.25 C50.88785889 229.41330811 50.02571777 229.57661621 49.13745117 229.74487305 C35.66367318 232.1282753 22.01805279 232.24006038 8.375 232.25 C7.11576218 232.25101212 7.11576218 232.25101212 5.83108521 232.25204468 C-6.69303302 232.23609001 -18.73669039 231.737535 -31 229 C-31.83660156 228.82307617 -32.67320312 228.64615234 -33.53515625 228.46386719 C-39.73602317 227.14195925 -45.87647619 225.64231986 -52 224 C-52.78165527 223.79036621 -53.56331055 223.58073242 -54.36865234 223.36474609 C-100.62224171 210.60547394 -143.73486529 181.02956403 -173 143 C-173.63156006 142.19103271 -173.63156006 142.19103271 -174.27587891 141.36572266 C-195 114.69448248 -195 114.69448248 -195 107 C-194.22100342 106.57291748 -193.44200684 106.14583496 -192.6394043 105.70581055 C-178.10258883 97.7292429 -163.61222867 89.69993885 -149.29541016 81.33300781 C-145.10905752 78.90187769 -140.89579935 76.5178631 -136.6875 74.125 C-128.30964817 69.35616502 -119.99688365 64.48395781 -111.72143555 59.53955078 C-106.45907635 56.40680179 -101.14123058 53.41029952 -95.75488281 50.49609375 C-91.20503713 48.02520981 -86.69554381 45.48365137 -82.1875 42.9375 C-81.20555664 42.38312256 -80.22361328 41.82874512 -79.21191406 41.25756836 C-71.28937919 36.76716258 -63.43636489 32.16564689 -55.62182617 27.48999023 C-50.35096138 24.34588574 -45.01848628 21.3547415 -39.62011719 18.43530273 C-35.86125269 16.37619312 -32.18000529 14.19596926 -28.5 12 C-22.07411408 8.19270374 -15.61263423 4.47662475 -9 1 C-8.34644531 0.5978125 -7.69289063 0.195625 -7.01953125 -0.21875 C-4.26585422 -1.28400224 -2.79613977 -0.88209003 0 0 Z " fill="#283491" transform="translate(789,801)"/>
<path d="M0 0 C0.99 0.33 1.98 0.66 3 1 C2.40832031 2.09957031 1.81664062 3.19914063 1.20703125 4.33203125 C-3.1352211 12.44264977 -7.36414402 20.54069689 -11 29 C-11.66 28.67 -12.32 28.34 -13 28 C-12.32116957 24.88452559 -11.25893098 22.14862279 -9.9375 19.25 C-9.57527344 18.45078125 -9.21304687 17.6515625 -8.83984375 16.828125 C-8.56269531 16.22484375 -8.28554688 15.6215625 -8 15 C-7.34 15 -6.68 15 -6 15 C-6 13.68 -6 12.36 -6 11 C-5.34 11 -4.68 11 -4 11 C-3.34 8.69 -2.68 6.38 -2 4 C-1.34 4 -0.68 4 0 4 C0 2.68 0 1.36 0 0 Z " fill="#6C73B3" transform="translate(385,581)"/>
<path d="M0 0 C0.33 0.66 0.66 1.32 1 2 C-1.97668102 5.5968229 -4.76422552 6.85228466 -9.09765625 8.19140625 C-11.28149775 9.11965099 -12.39324556 10.27752364 -14 12 C-16.68021728 13.74214123 -18.95982762 14.98660921 -22 16 C-22.66 15.34 -23.32 14.68 -24 14 C-16.08 9.38 -8.16 4.76 0 0 Z " fill="#4951A1" transform="translate(1039,655)"/>
<path d="M0 0 C0.66 0.66 1.32 1.32 2 2 C0.948125 2.70125 -0.10375 3.4025 -1.1875 4.125 C-3.78776208 5.9696749 -5.4149123 7.49789476 -7.5 10 C-10.38575172 13.46290207 -13.26417549 15.50945033 -17 18 C-17.66 17.67 -18.32 17.34 -19 17 C-13.04581129 10.78693352 -6.83086681 5.23367039 0 0 Z " fill="#6971B4" transform="translate(657,615)"/>
<path d="M0 0 C0.66 0 1.32 0 2 0 C2.8693381 3.41299009 3.71779224 6.83083808 4.5625 10.25 C4.80935547 11.21808594 5.05621094 12.18617188 5.31054688 13.18359375 C5.53935547 14.11816406 5.76816406 15.05273438 6.00390625 16.015625 C6.21861572 16.87446289 6.4333252 17.73330078 6.65454102 18.61816406 C7.0133965 21.09236484 6.78317203 22.64810343 6 25 C3.60492111 21.40738167 3.12969995 18.04284941 2.4375 13.875 C2.01146331 9.04750371 2.01146331 9.04750371 0 5 C-0.04063832 3.33382885 -0.042721 1.66611905 0 0 Z " fill="#6B73B7" transform="translate(341,893)"/>
<path d="M0 0 C0.33 0.66 0.66 1.32 1 2 C0.01 2 -0.98 2 -2 2 C-2.20625 2.61875 -2.4125 3.2375 -2.625 3.875 C-4 6 -4 6 -6.875 7.375 C-10 8 -10 8 -14 6 C-9.38 4.02 -4.76 2.04 0 0 Z " fill="#6D74B7" transform="translate(713,583)"/>
<path d="M0 0 C0 3 0 3 -1.6875 5.125 C-4.28210364 7.22873268 -5.72749702 7.60091427 -9 8 C-9.928125 8.185625 -10.85625 8.37125 -11.8125 8.5625 C-12.534375 8.706875 -13.25625 8.85125 -14 9 C-9.7045025 5.25876024 -5.00099548 2.65848126 0 0 Z " fill="#5966B4" transform="translate(256,391)"/>
<path d="M0 0 C0 0.99 0 1.98 0 3 C-1.97321053 4.3726682 -3.97543152 5.70427617 -6 7 C-6.99 8.485 -6.99 8.485 -8 10 C-9.32 9.01 -10.64 8.02 -12 7 C-8.04 4.69 -4.08 2.38 0 0 Z " fill="#48519D" transform="translate(1195,566)"/>
<path d="M0 0 C0 0.66 0 1.32 0 2 C-4.91373895 4.86634772 -9.89167198 7.49868076 -15 10 C-15.99 10.495 -15.99 10.495 -17 11 C-15.60970863 6.82912589 -12.72156282 5.81791302 -9.0625 3.8125 C-8.41603516 3.44447266 -7.76957031 3.07644531 -7.10351562 2.69726562 C-2.28446776 0 -2.28446776 0 0 0 Z " fill="#34459F" transform="translate(861,757)"/>
<path d="M0 0 C0.66 0 1.32 0 2 0 C0.60961435 5.13373162 -1.08460953 10.03739743 -3 15 C-3.66 14.67 -4.32 14.34 -5 14 C-3.45730076 9.27934033 -1.92205381 4.58335908 0 0 Z " fill="#7176B9" transform="translate(584,711)"/>
<path d="M0 0 C0 4.70031035 -2.89257072 7.63058605 -6 11 C-8.875 12.5 -8.875 12.5 -11 13 C-7.61227103 8.30840284 -4.21814817 3.9700218 0 0 Z " fill="#6970B0" transform="translate(631,639)"/>
<path d="M0 0 C2.31 0.33 4.62 0.66 7 1 C7.33 1.99 7.66 2.98 8 4 C10.97 4.495 10.97 4.495 14 5 C13.67 5.99 13.34 6.98 13 8 C8.71 5.69 4.42 3.38 0 1 C0 0.67 0 0.34 0 0 Z " fill="#4C55A1" transform="translate(1120,983)"/>
<path d="M0 0 C0.99 0.33 1.98 0.66 3 1 C0.69 4.3 -1.62 7.6 -4 11 C-5.04449911 7.86650268 -4.93423645 7.01031744 -4 4 C-3.34 4 -2.68 4 -2 4 C-1.34 2.68 -0.68 1.36 0 0 Z " fill="#6770B5" transform="translate(416,530)"/>
<path d="M0 0 C0.33 0.66 0.66 1.32 1 2 C-2.625 7.75 -2.625 7.75 -6 10 C-6.99 9.67 -7.98 9.34 -9 9 C-6.03 6.03 -3.06 3.06 0 0 Z " fill="#EBF5FD" transform="translate(463,477)"/>
<path d="M0 0 C0.33 0.99 0.66 1.98 1 3 C0.195625 3.45375 -0.60875 3.9075 -1.4375 4.375 C-4.08856572 5.74725665 -4.08856572 5.74725665 -5 8 C-6.65 7.67 -8.3 7.34 -10 7 C-6.80331012 4.3513141 -3.60513403 2.06007659 0 0 Z " fill="#4951A2" transform="translate(1081,631)"/>
<path d="M0 0 C0 0.99 0 1.98 0 3 C-1.423125 3.37125 -1.423125 3.37125 -2.875 3.75 C-6.08693191 4.6857077 -6.08693191 4.6857077 -7.375 7.125 C-7.58125 7.74375 -7.7875 8.3625 -8 9 C-9.32 9 -10.64 9 -12 9 C-12 8.34 -12 7.68 -12 7 C-10.04775792 5.71593601 -8.03659238 4.52058322 -6 3.375 C-4.88625 2.74335937 -3.7725 2.11171875 -2.625 1.4609375 C-1.75875 0.97882812 -0.8925 0.49671875 0 0 Z " fill="#4954A1" transform="translate(1116,611)"/>
<path d="M0 0 C0 0.99 0 1.98 0 3 C-1.423125 3.37125 -1.423125 3.37125 -2.875 3.75 C-6.08693191 4.6857077 -6.08693191 4.6857077 -7.375 7.125 C-7.58125 7.74375 -7.7875 8.3625 -8 9 C-9.32 9 -10.64 9 -12 9 C-12 8.34 -12 7.68 -12 7 C-10.04775792 5.71593601 -8.03659238 4.52058322 -6 3.375 C-4.88625 2.74335937 -3.7725 2.11171875 -2.625 1.4609375 C-1.75875 0.97882812 -0.8925 0.49671875 0 0 Z " fill="#49549F" transform="translate(1172,579)"/>
<path d="M0 0 C3.63 1.65 7.26 3.3 11 5 C10.67 5.66 10.34 6.32 10 7 C8.35 6.67 6.7 6.34 5 6 C5 5.34 5 4.68 5 4 C4.360625 3.896875 3.72125 3.79375 3.0625 3.6875 C2.381875 3.460625 1.70125 3.23375 1 3 C0.67 2.01 0.34 1.02 0 0 Z " fill="#444890" transform="translate(583,1213)"/>
<path d="M0 0 C0.66 0.33 1.32 0.66 2 1 C-1.56430755 4.14985318 -4.40693504 6.5140084 -9 8 C-9 7.01 -9 6.02 -9 5 C-7.54735962 4.1361871 -6.0876837 3.28419546 -4.625 2.4375 C-3.40683594 1.72400391 -3.40683594 1.72400391 -2.1640625 0.99609375 C-1.44992187 0.66738281 -0.73578125 0.33867188 0 0 Z " fill="#6466B9" transform="translate(729,126)"/>
<path d="M0 0 C-3.36423277 2.96052484 -6.69159287 3.92289822 -11 5 C-11.33 4.34 -11.66 3.68 -12 3 C-7.77050005 0.58314288 -4.87664009 -0.34833144 0 0 Z " fill="#393C8B" transform="translate(883,1017)"/>
<path d="M0 0 C-0.495 0.4125 -0.99 0.825 -1.5 1.25 C-3.43386092 3.12202338 -3.43386092 3.12202338 -3 7 C-3.66 7 -4.32 7 -5 7 C-5.66 5.02 -6.32 3.04 -7 1 C-3.375 -1.125 -3.375 -1.125 0 0 Z " fill="#313C8D" transform="translate(601,907)"/>
<path d="M0 0 C1 3 1 3 1 5 C0.34 5 -0.32 5 -1 5 C-1 5.66 -1 6.32 -1 7 C-2.65 7 -4.3 7 -6 7 C-4.02 4.69 -2.04 2.38 0 0 Z " fill="#E7F1FB" transform="translate(487,453)"/>
<path d="M0 0 C0 0.99 0 1.98 0 3 C-5.078125 6.22265625 -5.078125 6.22265625 -7 7 C-8.32 6.67 -9.64 6.34 -11 6 C-7.37 4.02 -3.74 2.04 0 0 Z " fill="#3F448C" transform="translate(1036,1202)"/>
<path d="M0 0 C5.54959786 -0.36997319 5.54959786 -0.36997319 7.75 1.4375 C8.36875 2.2109375 8.36875 2.2109375 9 3 C9.66 3.33 10.32 3.66 11 4 C11 4.66 11 5.32 11 6 C7.2089881 4.55049545 3.6125362 2.84827434 0 1 C0 0.67 0 0.34 0 0 Z " fill="#4E55A5" transform="translate(1109,977)"/>
<path d="M0 0 C0.66 0.66 1.32 1.32 2 2 C1 5 1 5 -1.4375 6.75 C-2.7059375 7.36875 -2.7059375 7.36875 -4 8 C-4.66 7.67 -5.32 7.34 -6 7 C-4.02 4.69 -2.04 2.38 0 0 Z " fill="#35418A" transform="translate(1154,1103)"/>
<path d="M0 0 C-4.95 2.475 -4.95 2.475 -10 5 C-10 4.01 -10 3.02 -10 2 C-8.71211992 1.46987262 -7.41953322 0.9511671 -6.125 0.4375 C-5.40570312 0.14746094 -4.68640625 -0.14257812 -3.9453125 -0.44140625 C-2 -1 -2 -1 0 0 Z " fill="#363F88" transform="translate(917,1002)"/>
<path d="M0 0 C0.33 0 0.66 0 1 0 C1.33 2.97 1.66 5.94 2 9 C1.01 9.33 0.02 9.66 -1 10 C-1.02689216 8.52093108 -1.04634621 7.04172517 -1.0625 5.5625 C-1.07410156 4.73878906 -1.08570313 3.91507813 -1.09765625 3.06640625 C-1 1 -1 1 0 0 Z " fill="#7A82BF" transform="translate(338,869)"/>
<path d="M0 0 C0.33 1.32 0.66 2.64 1 4 C0.01 4.33 -0.98 4.66 -2 5 C-2.73323796 7.01508358 -2.73323796 7.01508358 -3 9 C-3.66 8.01 -4.32 7.02 -5 6 C-3.35 4.02 -1.7 2.04 0 0 Z " fill="#6A72B7" transform="translate(614,659)"/>
<path d="M0 0 C0.33 0.66 0.66 1.32 1 2 C-1.83430453 5.2542015 -3.68607774 6.5206753 -8 7 C-6.5361389 2.60841671 -4.02168662 2.12052567 0 0 Z " fill="#5159A5" transform="translate(1039,655)"/>
<path d="M0 0 C0 3 0 3 -1 6 C-1.99 6.33 -2.98 6.66 -4 7 C-4.66 6.34 -5.32 5.68 -6 5 C-4.02 3.35 -2.04 1.7 0 0 Z " fill="#3D4694" transform="translate(1075,1176)"/>
<path d="M0 0 C1.89213369 2.38573379 3.02391783 4.07175348 4 7 C2.35 7 0.7 7 -1 7 C-0.67 4.69 -0.34 2.38 0 0 Z " fill="#6973B9" transform="translate(387,1018)"/>
<path d="M0 0 C3.37641082 3.37641082 4.27450305 5.64517436 6 10 C5.01 10 4.02 10 3 10 C2.01 6.7 1.02 3.4 0 0 Z " fill="#767FB7" transform="translate(381,1007)"/>
<path d="M0 0 C0.66 0.33 1.32 0.66 2 1 C2.6328125 3.06640625 2.6328125 3.06640625 3.125 5.5625 C3.29257812 6.38878906 3.46015625 7.21507812 3.6328125 8.06640625 C3.75398438 8.70449219 3.87515625 9.34257813 4 10 C3.34 10 2.68 10 2 10 C1.67 7.69 1.34 5.38 1 3 C0.01 2.67 -0.98 2.34 -2 2 C-1.34 1.34 -0.68 0.68 0 0 Z " fill="#646DAF" transform="translate(378,1001)"/>
<path d="M0 0 C0.66 0.33 1.32 0.66 2 1 C1.34 2.32 0.68 3.64 0 5 C-4 5 -4 5 -7 3 C-4.69631264 1.93347808 -2.35981813 0.93578995 0 0 Z " fill="#5A63AB" transform="translate(768,105)"/>
<path d="M0 0 C0.99 0.33 1.98 0.66 3 1 C1.37660195 2.70884005 -0.29319053 4.37446717 -2 6 C-2.66 6 -3.32 6 -4 6 C-2.84826645 3.53199953 -1.95216435 1.95216435 0 0 Z " fill="#EBF2FB" transform="translate(1071,1176)"/>
<path d="M0 0 C3.08089673 2.77280706 4.68775452 5.06326356 6 9 C4 9 4 9 2.4375 7.875 C0.50973984 5.36053022 0.34494893 3.10454033 0 0 Z " fill="#3F478E" transform="translate(404,1048)"/>
<path d="M0 0 C1 2 1 2 0.3125 4.5625 C-0.120625 5.366875 -0.55375 6.17125 -1 7 C-2.32 7.33 -3.64 7.66 -5 8 C-3.35 5.36 -1.7 2.72 0 0 Z " fill="#6E74B8" transform="translate(608,667)"/>
<path d="M0 0 C2.31 0 4.62 0 7 0 C7.33 1.65 7.66 3.3 8 5 C5.36 3.68 2.72 2.36 0 1 C0 0.67 0 0.34 0 0 Z " fill="#6C73B6" transform="translate(1017,386)"/>
<path d="M0 0 C1.9375 0.625 1.9375 0.625 4 2 C4.75 5.125 4.75 5.125 5 8 C4.34 8 3.68 8 3 8 C2.01 5.36 1.02 2.72 0 0 Z " fill="#7077BA" transform="translate(586,893)"/>
</svg>
