<?xml version="1.0" encoding="UTF-8"?>
<svg version="1.1" xmlns="http://www.w3.org/2000/svg" width="1200" height="1349">
<path d="M0 0 C2.02054262 0.01611356 4.03908656 0.0000182 6.05957031 -0.01904297 C32.19928871 -0.06019168 52.98684575 10.59860585 75.02050781 23.39111328 C76.23939697 24.0980835 76.23939697 24.0980835 77.48291016 24.81933594 C80.85205372 26.78063961 84.20889754 28.76173044 87.55957031 30.75439453 C93.16296627 34.07987131 98.81208248 37.32605581 104.45800781 40.57861328 C105.56539307 41.21669922 106.67277832 41.85478516 107.8137207 42.51220703 C110.0841986 43.82018019 112.35478881 45.12795841 114.62548828 46.43554688 C120.09220761 49.58443382 125.55625668 52.73794592 131.02050781 55.89111328 C133.18716092 57.14113678 135.35382761 58.39113675 137.52050781 59.64111328 C150.52050781 67.14111328 163.52050781 74.64111328 176.52050781 82.14111328 C177.59316895 82.75994385 178.66583008 83.37877441 179.77099609 84.01635742 C181.93607852 85.26546846 184.10111763 86.51465457 186.26611328 87.76391602 C191.70666487 90.90313638 197.14797997 94.04101891 202.59082031 97.17626953 C213.04256981 103.19858657 223.48350329 109.23780665 233.89550781 115.32861328 C242.57313023 120.40386451 251.28656349 125.41370095 260.02050781 130.39111328 C269.74166398 135.93113058 279.42945439 141.52486137 289.08740234 147.17456055 C299.61135406 153.3287807 310.17430919 159.41481324 320.73828125 165.5 C326.16710724 168.62791476 331.59370062 171.75969776 337.02050781 174.89111328 C339.18716364 176.14113207 341.35383031 177.39113207 343.52050781 178.64111328 C391.18717448 206.14111328 438.85384115 233.64111328 486.52050781 261.14111328 C487.59308838 261.75986328 488.66566895 262.37861328 489.77075195 263.01611328 C491.93676743 264.26583148 494.10262041 265.51583137 496.26831055 266.76611328 C501.69364091 269.89775831 507.121732 273.02441438 512.55566406 276.14111328 C519.05540831 279.87147725 525.5404718 283.62664062 532.02050781 287.39111328 C533.14569824 288.04176758 534.27088867 288.69242187 535.43017578 289.36279297 C538.80127547 291.31779085 542.16198702 293.28959989 545.52050781 295.26611328 C546.52863525 295.848125 547.5367627 296.43013672 548.57543945 297.02978516 C555.47533232 301.12289295 561.22802598 305.8569878 567.02050781 311.39111328 C567.94863281 312.22900391 568.87675781 313.06689453 569.83300781 313.93017578 C586.83425528 330.14207962 601.63239137 357.46551646 602.27350748 381.32488257 C602.28502719 383.14756532 602.28582291 384.97033697 602.27777672 386.79303837 C602.28128279 387.80827689 602.28478887 388.82351541 602.28840119 389.86951873 C602.29769994 393.26911092 602.29279572 396.66853124 602.28793335 400.06813049 C602.29167038 402.53112694 602.29627211 404.99412221 602.30166399 407.45711559 C602.31134755 412.81113445 602.31480983 418.16510356 602.31275177 423.51912689 C602.3096987 431.48116556 602.31803259 439.44316429 602.32850102 447.40519518 C602.34783538 462.45471198 602.35346905 477.50421514 602.35461514 492.55374289 C602.35553459 504.17810835 602.35965317 515.80246847 602.36601639 527.4268322 C602.36781151 530.77418531 602.36959114 534.12153844 602.37136614 537.46889156 C602.37180824 538.30108439 602.37225034 539.13327722 602.37270583 539.99068801 C602.38501325 563.39707653 602.39290707 586.80346319 602.39201927 610.20985508 C602.39198811 611.09220788 602.39195696 611.97456067 602.39192486 612.88365143 C602.39175864 617.35566306 602.39156056 621.82767469 602.39135544 626.29968632 C602.3912956 627.63189288 602.3912956 627.63189288 602.39123456 628.9910127 C602.39115369 630.78704427 602.39107009 632.58307584 602.39098378 634.37910741 C602.38975861 662.31452668 602.40476547 690.24989737 602.43212891 718.18530273 C602.46286844 749.58021486 602.48006024 780.97509507 602.47820246 812.37002319 C602.4780532 815.7195768 602.47795579 819.0691304 602.47789383 822.41868401 C602.47785887 823.65577408 602.47785887 823.65577408 602.4778232 824.91785587 C602.47776172 838.17456989 602.49051907 851.43124165 602.50775836 864.68794311 C602.52473504 878.0187294 602.52667279 891.34945404 602.51353972 904.68024517 C602.50616385 912.59321596 602.50976752 920.50599918 602.5294244 928.41895 C602.54288056 934.33743966 602.53527639 940.25578371 602.51967795 946.17427205 C602.51660918 948.56121795 602.5202357 950.94818431 602.5313981 953.33510608 C602.65848021 982.44810143 594.52509986 1009.19753865 575.02050781 1031.39111328 C574.34632812 1032.20837891 573.67214844 1033.02564453 572.97753906 1033.86767578 C561.22721431 1047.69410527 545.96779405 1055.69394462 530.37646484 1064.48730469 C525.26994012 1067.38419686 520.20867567 1070.35681845 515.14550781 1073.32861328 C505.87639187 1078.75181129 496.56217417 1084.09317162 487.23205566 1089.41033936 C478.10767941 1094.61156457 469.01918007 1099.87139206 459.95361328 1105.17456055 C449.42966157 1111.3287807 438.86670644 1117.41481324 428.30273438 1123.5 C422.87390839 1126.62791476 417.447315 1129.75969776 412.02050781 1132.89111328 C409.85385199 1134.14113207 407.68718532 1135.39113207 405.52050781 1136.64111328 C404.44800781 1137.25986328 403.37550781 1137.87861328 402.27050781 1138.51611328 C210.52050781 1249.14111328 210.52050781 1249.14111328 207.27001953 1251.01635742 C205.10493711 1252.26546846 202.93989799 1253.51465457 200.77490234 1254.76391602 C195.33435075 1257.90313638 189.89303566 1261.04101891 184.45019531 1264.17626953 C173.99844582 1270.19858657 163.55751233 1276.23780665 153.14550781 1282.32861328 C143.87551004 1287.75032506 134.56219029 1293.09316243 125.23205566 1298.41033936 C116.11652074 1303.60652469 107.03670498 1308.86104894 97.97998047 1314.15917969 C89.35490025 1319.20306102 80.71219207 1324.21605218 72.04541016 1329.18798828 C65.43425924 1332.97764507 65.43425924 1332.97764507 58.90332031 1336.90283203 C47.93097412 1343.55465854 34.34729267 1349.40664331 21.28466797 1349.56811523 C20.3724649 1349.58095047 19.46026184 1349.59378571 18.52041626 1349.60700989 C17.5433371 1349.61439682 16.56625793 1349.62178375 15.55957031 1349.62939453 C14.53681 1349.63746628 13.51404968 1349.64553802 12.46029663 1349.65385437 C10.29337239 1349.66767028 8.12642662 1349.67840356 5.95947266 1349.6862793 C3.76800043 1349.69774198 1.57655484 1349.71810186 -0.61474609 1349.74780273 C-34.15888376 1350.2019247 -57.43296687 1335.64659414 -85.71386719 1319.05908203 C-92.07720254 1315.32785357 -98.46298773 1311.63633271 -104.85449219 1307.95361328 C-106.47411865 1307.0201709 -106.47411865 1307.0201709 -108.12646484 1306.06787109 C-110.31663753 1304.80582603 -112.50690462 1303.54394476 -114.69726562 1302.28222656 C-120.12609161 1299.1543118 -125.552685 1296.0225288 -130.97949219 1292.89111328 C-133.14614801 1291.64109449 -135.31281468 1290.3910945 -137.47949219 1289.14111328 C-176.47949219 1266.64111328 -215.47949219 1244.14111328 -254.47949219 1221.64111328 C-255.55215332 1221.02228271 -256.62481445 1220.40345215 -257.72998047 1219.76586914 C-259.89506289 1218.5167581 -262.06010201 1217.26757199 -264.22509766 1216.01831055 C-269.66564925 1212.87909019 -275.10696434 1209.74120765 -280.54980469 1206.60595703 C-291.00155418 1200.58363999 -301.44248767 1194.54441991 -311.85449219 1188.45361328 C-320.5321146 1183.37836205 -329.24554787 1178.36852562 -337.97949219 1173.39111328 C-347.70064835 1167.85109598 -357.38843877 1162.25736519 -367.04638672 1156.60766602 C-377.57033843 1150.45344587 -388.13329356 1144.36741332 -398.69726562 1138.28222656 C-404.12609161 1135.1543118 -409.552685 1132.0225288 -414.97949219 1128.89111328 C-417.14614801 1127.64109449 -419.31281468 1126.3910945 -421.47949219 1125.14111328 C-443.14615885 1112.64111328 -464.81282552 1100.14111328 -486.47949219 1087.64111328 C-487.55247559 1087.02212158 -488.62545898 1086.40312988 -489.73095703 1085.76538086 C-491.89287102 1084.5180478 -494.05465536 1083.27048998 -496.21630859 1082.02270508 C-501.70463803 1078.85502496 -507.19531751 1075.69154567 -512.69042969 1072.53564453 C-519.12906809 1068.83616285 -525.55676475 1065.11813646 -531.97949219 1061.39111328 C-532.93742676 1060.83762207 -533.89536133 1060.28413086 -534.88232422 1059.71386719 C-565.90122599 1041.7412624 -586.54241831 1017.97357777 -596.06933594 983.00048828 C-596.3696875 981.80939453 -596.67003906 980.61830078 -596.97949219 979.39111328 C-597.25091126 978.34827138 -597.25091126 978.34827138 -597.52781355 977.28436196 C-598.19360789 973.01958508 -598.12199384 968.79991008 -598.11650658 964.48975945 C-598.1191584 963.48003509 -598.12181023 962.47031074 -598.12454242 961.42998868 C-598.13224047 958.02508366 -598.13279479 954.62021467 -598.13339233 951.21530151 C-598.13740664 948.75789607 -598.14184481 946.30049129 -598.14667189 943.84308732 C-598.15739008 937.78360425 -598.16339435 931.72413224 -598.16738077 925.66464232 C-598.17239236 918.40722058 -598.18312044 911.14981006 -598.1938625 903.89239494 C-598.21948925 886.34754744 -598.23452889 868.80269558 -598.24737297 851.25783474 C-598.25162865 845.44480146 -598.25619441 839.63176849 -598.26095629 833.8187356 C-598.28622099 802.89793778 -598.30826494 771.97713942 -598.32068443 741.05633354 C-598.32360567 733.89237338 -598.32657321 726.72841324 -598.32958984 719.56445312 C-598.32996075 718.67443605 -598.33033166 717.78441897 -598.33071381 716.86743168 C-598.34286156 688.02954076 -598.37379245 659.19171097 -598.41551137 630.35384875 C-598.45833736 600.69651566 -598.48493043 571.03921485 -598.49015915 541.38185001 C-598.49089955 537.18920943 -598.49181022 532.9965689 -598.49281693 528.80392838 C-598.49300754 527.97881793 -598.49319815 527.15370748 -598.49339455 526.30359368 C-598.49690239 513.04723561 -598.51717399 499.7909543 -598.54361356 486.53462437 C-598.56981388 473.1965736 -598.57746217 459.85861114 -598.56651227 446.52053832 C-598.56055454 438.60595081 -598.56834593 430.6916638 -598.59634311 422.77712202 C-598.61574334 416.85194752 -598.60870332 410.92698841 -598.59177394 405.00180031 C-598.58898178 402.61602284 -598.59452838 400.23021674 -598.60958688 397.84448515 C-598.78649439 367.97353163 -590.12363757 339.45966282 -568.98730469 317.50439453 C-566.91465345 315.39310648 -566.91465345 315.39310648 -565.04199219 312.89501953 C-555.49466383 301.30441825 -540.14728829 294.52034503 -527.34423828 287.29931641 C-522.1940773 284.37857499 -517.08712866 281.3853914 -511.97949219 278.39111328 C-500.43328106 271.64226487 -488.85045726 264.95771166 -477.26171875 258.28222656 C-471.83289276 255.1543118 -466.40629938 252.0225288 -460.97949219 248.89111328 C-458.81283636 247.64109449 -456.64616969 246.3910945 -454.47949219 245.14111328 C-453.40699219 244.52236328 -452.33449219 243.90361328 -451.22949219 243.26611328 C-259.47949218 132.64111328 -259.47949218 132.64111328 -256.22900391 130.76586914 C-254.06392148 129.5167581 -251.89888237 128.26757199 -249.73388672 127.01831055 C-244.29333513 123.87909019 -238.85202003 120.74120765 -233.40917969 117.60595703 C-222.95743019 111.58363999 -212.51649671 105.54441991 -202.10449219 99.45361328 C-192.83449441 94.03190151 -183.52117467 88.68906413 -174.19104004 83.37188721 C-165.06666379 78.17066199 -155.97816445 72.9108345 -146.91259766 67.60766602 C-136.38864594 61.45344587 -125.82569081 55.36741332 -115.26171875 49.28222656 C-110.91434118 46.77740756 -106.5684283 44.27005438 -102.22265625 41.76245117 C-100.0658634 40.51796027 -97.90896288 39.27365594 -95.75195312 38.02954102 C-89.07201923 34.17662535 -82.39472579 30.31917612 -75.71899414 26.45898438 C-72.43454411 24.5623402 -69.14679533 22.67152905 -65.85839844 20.78173828 C-62.33052969 18.75356626 -58.81584566 16.707203 -55.31933594 14.62548828 C-38.20895762 4.52901431 -19.89936295 -0.18772984 0 0 Z " fill="#659AD2" transform="translate(597.9794921875,-0.39111328125)"/>
<path d="M0 0 C3.42657732 1.56872922 4.38823001 5.42679139 5.79223633 8.72412109 C6.11385742 9.41892578 6.43547852 10.11373047 6.7668457 10.82958984 C14.21147997 27.8333107 15.58258896 44.3730238 15.48292542 62.72868347 C15.48797958 65.20031428 15.49521509 67.67194141 15.50442356 70.14356023 C15.51933371 75.48555694 15.51895868 80.82721564 15.50459671 86.16918945 C15.48329857 94.11308392 15.4909169 102.05677466 15.50397193 110.00067763 C15.52635639 124.19314502 15.52047541 138.38549282 15.50253583 152.57796023 C15.48693666 164.99652179 15.48112336 177.41504153 15.48487663 189.83361244 C15.48523183 191.07172343 15.48523183 191.07172343 15.48559421 192.33484676 C15.48656921 195.68584643 15.48759004 199.03684609 15.48867931 202.38784573 C15.49874967 233.78623986 15.48053254 265.18456057 15.44895896 296.58293744 C15.42109301 324.45285991 15.41613963 352.32269512 15.43115234 380.19262695 C15.43497507 387.33204996 15.43876995 394.47147297 15.44232273 401.61089611 C15.44276055 402.48996125 15.44319836 403.3690264 15.44364944 404.27472988 C15.45489825 427.59473419 15.44753388 450.91473213 15.43444198 474.23473436 C15.43305348 476.74500194 15.43167277 479.25526953 15.43030356 481.76553713 C15.42939419 483.43062793 15.42847152 485.09571872 15.42753546 486.7608095 C15.42075101 499.17088782 15.42338983 511.58094089 15.43048286 523.9910183 C15.43846201 538.10517616 15.43183736 552.21924629 15.40630782 566.33338495 C15.39242266 574.22417794 15.3893615 582.11479416 15.40224253 590.00558987 C15.41062083 595.90717424 15.39795137 601.80859464 15.37726831 607.71015266 C15.37212436 610.09006413 15.37364298 612.47000177 15.38266296 614.8499017 C15.48369599 643.93670536 7.34083518 670.6765892 -12.14526367 692.84912109 C-12.81944336 693.66638672 -13.49362305 694.48365234 -14.18823242 695.32568359 C-25.93855718 709.15211309 -41.19797744 717.15195243 -56.78930664 725.9453125 C-61.89583136 728.84220467 -66.95709581 731.81482626 -72.02026367 734.78662109 C-81.28937961 740.2098191 -90.60359732 745.55117944 -99.93371582 750.86834717 C-109.05809207 756.06957238 -118.14659141 761.32939987 -127.2121582 766.63256836 C-137.73610992 772.78678851 -148.29906505 778.87282105 -158.86303711 784.95800781 C-164.2918631 788.08592258 -169.71845648 791.21770557 -175.14526367 794.34912109 C-177.3119195 795.59913988 -179.47858617 796.84913988 -181.64526367 798.09912109 C-183.25401367 799.02724609 -183.25401367 799.02724609 -184.89526367 799.97412109 C-376.64526367 910.5991211 -376.64526367 910.5991211 -379.89575195 912.47436523 C-382.06083438 913.72347627 -384.22587349 914.97266239 -386.39086914 916.22192383 C-391.83142073 919.36114419 -397.27273583 922.49902672 -402.71557617 925.63427734 C-413.16732567 931.65659438 -423.60825915 937.69581447 -434.02026367 943.78662109 C-443.29026145 949.20833287 -452.60358119 954.55117025 -461.93371582 959.86834717 C-471.04925074 965.0645325 -480.1290665 970.31905675 -489.18579102 975.6171875 C-497.81087124 980.66106883 -506.45357941 985.67405999 -515.12036133 990.64599609 C-521.73151225 994.43565289 -521.73151225 994.43565289 -528.26245117 998.36083984 C-539.23479737 1005.01266635 -552.81847881 1010.86465112 -565.88110352 1011.02612305 C-566.79330658 1011.03895828 -567.70550964 1011.05179352 -568.64535522 1011.0650177 C-569.62243439 1011.07240463 -570.59951355 1011.07979156 -571.60620117 1011.08740234 C-572.62896149 1011.09547409 -573.6517218 1011.10354584 -574.70547485 1011.11186218 C-576.87239909 1011.12567809 -579.03934486 1011.13641137 -581.20629883 1011.14428711 C-583.39777106 1011.1557498 -585.58921664 1011.17610967 -587.78051758 1011.20581055 C-621.32465525 1011.65993251 -644.59873835 997.10460196 -672.87963867 980.51708984 C-679.24297402 976.78586139 -685.62875922 973.09434052 -692.02026367 969.41162109 C-693.63989014 968.47817871 -693.63989014 968.47817871 -695.29223633 967.52587891 C-697.48240902 966.26383384 -699.6726761 965.00195257 -701.86303711 963.74023438 C-707.2918631 960.61231961 -712.71845648 957.48053662 -718.14526367 954.34912109 C-720.3119195 953.0991023 -722.47858617 951.84910231 -724.64526367 950.59912109 C-763.64526367 928.09912109 -802.64526367 905.59912109 -841.64526367 883.09912109 C-842.7179248 882.48029053 -843.79058594 881.86145996 -844.89575195 881.22387695 C-847.06083438 879.97476591 -849.22587349 878.7255798 -851.39086914 877.47631836 C-856.83142073 874.337098 -862.27273583 871.19921547 -867.71557617 868.06396484 C-878.16732567 862.04164781 -888.60825915 856.00242772 -899.02026367 849.91162109 C-907.69788609 844.83636986 -916.41131935 839.82653343 -925.14526367 834.84912109 C-934.86641984 829.3091038 -944.55421025 823.71537301 -954.2121582 818.06567383 C-964.73610992 811.91145368 -975.29906505 805.82542113 -985.86303711 799.74023438 C-991.2918631 796.61231961 -996.71845648 793.48053662 -1002.14526367 790.34912109 C-1004.3119195 789.0991023 -1006.47858617 787.84910231 -1008.64526367 786.59912109 C-1030.31193034 774.09912109 -1051.97859701 761.59912109 -1073.64526367 749.09912109 C-1074.71824707 748.48012939 -1075.79123047 747.8611377 -1076.89672852 747.22338867 C-1079.05864251 745.97605561 -1081.22042684 744.72849779 -1083.38208008 743.48071289 C-1088.87040952 740.31303277 -1094.361089 737.14955349 -1099.85620117 733.99365234 C-1106.29483958 730.29417066 -1112.72253624 726.57614428 -1119.14526367 722.84912109 C-1120.58216553 722.01888428 -1120.58216553 722.01888428 -1122.0480957 721.171875 C-1142.55136743 709.29211206 -1157.90689196 696.27662549 -1170.14526367 675.84912109 C-1167.36789021 672.86026842 -1164.70597377 670.83861201 -1161.12963867 668.88818359 C-1160.13843018 668.34170166 -1159.14722168 667.79521973 -1158.12597656 667.23217773 C-1157.05984131 666.65201904 -1155.99370605 666.07186035 -1154.89526367 665.47412109 C-1152.61692601 664.21680586 -1150.33960629 662.95764455 -1148.06323242 661.69677734 C-1147.19395363 661.21612068 -1147.19395363 661.21612068 -1146.30711365 660.72575378 C-1140.55712258 657.53937956 -1134.87727423 654.2384721 -1129.20776367 650.91162109 C-1127.21694875 649.74483413 -1125.22606267 648.57816859 -1123.23510742 647.41162109 C-1122.23850098 646.82767578 -1121.24189453 646.24373047 -1120.21508789 645.64208984 C-1114.91199118 642.54475071 -1109.59131432 639.47798252 -1104.27026367 636.41162109 C-1103.19010986 635.78908447 -1102.10995605 635.16654785 -1100.99707031 634.52514648 C-1098.80730033 633.26335283 -1096.61744012 632.00171576 -1094.42749023 630.74023438 C-1088.99866425 627.61231961 -1083.57207086 624.48053662 -1078.14526367 621.34912109 C-1075.97860785 620.0991023 -1073.81194118 618.84910231 -1071.64526367 617.59912109 C-1070.57276367 616.98037109 -1069.50026367 616.36162109 -1068.39526367 615.72412109 C-1039.14526367 598.84912109 -1009.89526367 581.97412109 -980.64526367 565.09912109 C-979.57099121 564.47924316 -978.49671875 563.85936523 -977.38989258 563.22070312 C-975.24149855 561.98145643 -973.09274042 560.74284073 -970.94360352 559.50488281 C-965.8575245 556.57414478 -960.77546138 553.63700693 -955.70611572 550.6774292 C-953.30706797 549.27733941 -950.90593957 547.88084014 -948.50463867 546.48461914 C-946.80728141 545.49568872 -945.11295465 544.50156271 -943.41870117 543.50732422 C-942.39260742 542.91113281 -941.36651367 542.31494141 -940.30932617 541.70068359 C-939.40649902 541.17297363 -938.50367188 540.64526367 -937.57348633 540.1015625 C-935.39373913 538.97728107 -933.54124354 538.30878652 -931.14526367 537.84912109 C-927.48992261 542.88429288 -924.0221932 547.99705609 -920.78759766 553.31079102 C-911.90835755 567.8720251 -901.70067885 581.47788644 -890.4753418 594.30859375 C-889.13697236 595.85872428 -887.83352106 597.43275999 -886.53588867 599.01708984 C-880.21554722 606.67185168 -873.41110261 613.76468673 -866.39526367 620.78662109 C-865.50790527 621.67478516 -864.62054687 622.56294922 -863.70629883 623.47802734 C-858.67502067 628.46691503 -853.53536974 633.25180856 -848.14526367 637.84912109 C-847.18104492 638.69474609 -846.21682617 639.54037109 -845.22338867 640.41162109 C-824.01913876 658.6871072 -800.91348582 674.0004085 -776.46264648 687.55908203 C-774.479637 688.66298238 -772.50992614 689.78606866 -770.54370117 690.91943359 C-752.05512776 701.26783885 -731.69840027 709.61767275 -711.54711914 716.07519531 C-709.07242745 716.87259038 -706.61169886 717.70640672 -704.14916992 718.54052734 C-644.74786103 738.13938586 -579.57038169 741.48600277 -518.14526367 730.84912109 C-517.46627014 730.73312561 -516.78727661 730.61713013 -516.08770752 730.49761963 C-479.41715351 724.18711179 -443.50699831 712.2792872 -410.14526367 695.84912109 C-409.0532666 695.31270996 -407.96126953 694.77629883 -406.83618164 694.22363281 C-375.15948805 678.53254571 -345.58881077 659.04149473 -319.55151367 635.04443359 C-317.55674903 633.22453468 -315.53193561 631.46088924 -313.48510742 629.70068359 C-308.52467979 625.36883099 -303.86115946 620.75648134 -299.20776367 616.09912109 C-298.32185547 615.21313232 -297.43594727 614.32714355 -296.52319336 613.41430664 C-291.34057446 608.18615049 -286.43638547 602.93740385 -281.92260742 597.11865234 C-280.19659938 594.91467284 -278.36772352 592.8940885 -276.45776367 590.84912109 C-253.64696145 566.09878774 -253.64696145 566.09878774 -240.14526367 536.84912109 C-240.79672363 536.47327881 -241.44818359 536.09743652 -242.11938477 535.71020508 C-243.04315918 535.1772583 -243.96693359 534.64431152 -244.91870117 534.09521484 C-245.95784668 533.49572021 -246.99699219 532.89622559 -248.06762695 532.27856445 C-250.40198009 530.93179687 -252.73629602 529.58496502 -255.07055664 528.23803711 C-260.98504856 524.82534811 -266.90014808 521.41372703 -272.81713867 518.00537109 C-284.26749793 511.4078983 -295.70098018 504.78306283 -307.11108398 498.11621094 C-318.76185552 491.31324486 -330.45430111 484.58269923 -342.14526367 477.84912109 C-355.96545265 469.88918436 -369.77522732 461.91286638 -383.54614258 453.86791992 C-392.73107127 448.5027185 -401.93517437 443.17098873 -411.14526367 437.84912109 C-413.97287022 441.28353701 -416.48164253 444.80149251 -418.89526367 448.53662109 C-425.16860297 458.01040705 -432.37385553 466.5729236 -440.14526367 474.84912109 C-440.63736328 475.37521973 -441.12946289 475.90131836 -441.63647461 476.44335938 C-476.5892141 513.50439332 -526.36280454 535.50856734 -577.20986938 537.08218384 C-592.72525715 537.46221522 -607.9369343 537.22432045 -623.14526367 533.84912109 C-623.96285156 533.68283203 -624.78043945 533.51654297 -625.62280273 533.34521484 C-655.71671924 527.22441827 -684.14472626 514.04318484 -708.14526367 494.84912109 C-709.1584668 494.04087891 -710.17166992 493.23263672 -711.21557617 492.39990234 C-730.09124049 477.03531022 -746.17747265 459.10926882 -758.14526367 437.84912109 C-758.53278809 437.16688477 -758.9203125 436.48464844 -759.31958008 435.78173828 C-782.24847598 395.07690943 -792.06387088 345.94887207 -782.14526367 299.84912109 C-781.97365723 299.00671875 -781.80205078 298.16431641 -781.62524414 297.29638672 C-770.93017875 245.41719554 -740.00802907 199.79920433 -696.1496582 170.16699219 C-653.021521 141.81063596 -599.07689483 129.40156928 -548.12573242 139.84912109 C-492.25280032 152.03061405 -446.60169717 183.2057312 -415.14526367 230.84912109 C-414.13366577 232.50877391 -413.12938934 234.17303206 -412.14526367 235.84912109 C-408.75523646 234.55803918 -405.62365536 233.09130568 -402.46948242 231.30224609 C-401.57189209 230.7945166 -400.67430176 230.28678711 -399.74951172 229.76367188 C-398.78698486 229.21437012 -397.82445801 228.66506836 -396.83276367 228.09912109 C-395.81802979 227.52274902 -394.8032959 226.94637695 -393.7578125 226.35253906 C-384.56717587 221.11871708 -375.43338153 215.78888067 -366.30541992 210.44677734 C-356.70584129 204.83233434 -347.06390416 199.29111789 -337.42749023 193.74023438 C-331.99866429 190.61231963 -326.57204361 187.48058378 -321.14526367 184.34912109 C-314.62293093 180.5854819 -308.10012605 176.82267488 -301.57495117 173.06396484 C-291.12320088 167.04164735 -280.68233252 161.00231852 -270.27026367 154.91162109 C-261.63244367 149.86074091 -252.96206727 144.86887756 -244.27026367 139.91162109 C-226.88724673 129.99710879 -209.54458652 120.01455204 -192.27026367 109.91162109 C-183.00020852 104.49000614 -173.68694717 99.14707252 -164.35681152 93.82989502 C-155.23243527 88.62866981 -146.14393593 83.36884232 -137.07836914 78.06567383 C-126.55441742 71.91145368 -115.9914623 65.82542113 -105.42749023 59.74023438 C-99.99866425 56.61231961 -94.57207086 53.48053662 -89.14526367 50.34912109 C-86.97860785 49.0991023 -84.81194118 47.84910231 -82.64526367 46.59912109 C-81.57276367 45.98037109 -80.50026367 45.36162109 -79.39526367 44.72412109 C-69.64526367 39.09912109 -69.64526367 39.09912109 -66.39428711 37.22363281 C-64.23078891 35.97541075 -62.06737724 34.7270387 -59.90405273 33.47851562 C-54.4396135 30.32506853 -48.97362722 27.17436014 -43.50463867 24.02880859 C-41.86229248 23.08328125 -41.86229248 23.08328125 -40.18676758 22.11865234 C-38.01273162 20.86731582 -35.83794058 19.61729014 -33.66235352 18.36865234 C-28.32574752 15.29727135 -23.0217402 12.18415546 -17.76245117 8.98193359 C-16.75214844 8.37043457 -15.7418457 7.75893555 -14.70092773 7.12890625 C-12.79268154 5.97003298 -10.89060395 4.80092063 -8.99584961 3.62011719 C-8.15054687 3.10787598 -7.30524414 2.59563477 -6.43432617 2.06787109 C-5.33145264 1.3862793 -5.33145264 1.3862793 -4.20629883 0.69091797 C-2.14526367 -0.15087891 -2.14526367 -0.15087891 0 0 Z " fill="#00599C" transform="translate(1185.145263671875,338.15087890625)"/>
<path d="M0 0 C1.60343262 0.32991943 1.60343262 0.32991943 3.23925781 0.66650391 C35.36571278 7.48773061 66.92732716 19.83227762 95.99707031 34.96386719 C98.13284657 36.06872268 100.28060149 37.14784561 102.4296875 38.2265625 C131.95869219 53.20828114 159.23046138 73.00439748 183.41015625 95.59375 C185.54656893 97.57871261 187.71442515 99.48931489 189.9375 101.375 C198.59481506 108.89128818 206.60314944 117.25255676 214 126 C215.26650391 127.43279297 215.26650391 127.43279297 216.55859375 128.89453125 C231.42338065 145.77886665 244.45464481 164.10090975 256.125 183.3125 C256.51606934 183.95356689 256.90713867 184.59463379 257.31005859 185.25512695 C260 189.75774849 260 189.75774849 260 192 C259.27748047 192.41137207 258.55496094 192.82274414 257.81054688 193.24658203 C244.14961858 201.02847849 230.50963683 208.84142316 216.93896484 216.7800293 C204.23028991 224.21180029 191.46633395 231.54772873 178.70898438 238.89550781 C166.13748005 246.13738151 153.57954248 253.40088563 141.05395508 260.72192383 C132.47929627 265.72998787 123.88104682 270.69663603 115.26928711 275.640625 C110.38108153 278.45111061 105.50867182 281.27886782 100.6875 284.203125 C99.89657959 284.68040039 99.10565918 285.15767578 98.29077148 285.64941406 C96.84997182 286.52270252 95.41418104 287.40433287 93.98461914 288.29589844 C92.36728758 289.27437462 90.68773211 290.14868494 89 291 C85.0119523 289.67065077 83.99769803 287.18094005 81.9375 283.75 C74.55799047 271.91276333 65.96938268 261.46654279 56.33398438 251.39697266 C55.19641327 250.20568754 54.07321776 249.00070236 52.953125 247.79296875 C27.5733435 221.1658903 -8.71536199 204.52092555 -44 196 C-44.74378906 195.81824219 -45.48757813 195.63648438 -46.25390625 195.44921875 C-70.87594604 189.99154157 -97.3245614 190.23084035 -122 195 C-122.7734375 195.14453613 -123.546875 195.28907227 -124.34375 195.43798828 C-175.7245768 205.23462819 -220.88568199 235.5882175 -250.53442383 278.43261719 C-272.97419985 311.54553799 -285.45554057 350.0324587 -285.4375 390.125 C-285.43823517 390.84934235 -285.43897034 391.57368469 -285.43972778 392.31997681 C-285.2961911 446.95241786 -262.15558007 497.34620861 -223.7590332 535.54345703 C-213.24161379 545.77554582 -201.41393772 554.22529158 -189 562 C-188.10087891 562.56799316 -188.10087891 562.56799316 -187.18359375 563.14746094 C-171.0397121 573.19816048 -152.50252953 580.65330022 -134 585 C-132.30617188 585.40798828 -132.30617188 585.40798828 -130.578125 585.82421875 C-116.73717686 588.97687916 -103.24416196 590.38864455 -89.0625 590.3125 C-88.35033325 590.31067719 -87.6381665 590.30885437 -86.90441895 590.30697632 C-73.77571826 590.25087545 -60.94040731 589.3282002 -48 587 C-46.68829834 586.76651855 -46.68829834 586.76651855 -45.35009766 586.52832031 C4.08018072 577.26880658 49.43534401 546.01220216 78 505 C81.11402551 500.40345995 84.09750676 495.73248897 87 491 C94.20030487 494.47715373 101.11910731 498.30649902 108 502.375 C110.12464655 503.62299776 112.24965936 504.87037214 114.375 506.1171875 C115.46554687 506.7575293 116.55609375 507.39787109 117.6796875 508.05761719 C123.1047113 511.23125611 128.55253414 514.3650913 134 517.5 C142.34819376 522.30815262 150.68243427 527.13905825 159 532 C170.54722486 538.74713114 182.12902119 545.4333937 193.71777344 552.10888672 C200.21934599 555.85488352 206.71839431 559.6052619 213.21655273 563.35717773 C218.22723556 566.24963413 223.2394688 569.13926194 228.25863647 572.01696777 C230.01728749 573.02548314 231.77533209 574.0350477 233.53320312 575.04492188 C235.72472231 576.30350518 237.91734504 577.56016987 240.11132812 578.81445312 C246.86272402 582.69531332 253.46591135 586.76358632 260 591 C258.76572211 594.26990998 257.39270076 597.19606604 255.53125 600.15234375 C255.04769043 600.92175293 254.56413086 601.69116211 254.06591797 602.48388672 C253.29078857 603.69842529 253.29078857 603.69842529 252.5 604.9375 C251.96391113 605.78070801 251.42782227 606.62391602 250.87548828 607.49267578 C246.16264548 614.8487298 241.22006628 621.9963408 236 629 C235.60103516 629.53786133 235.20207031 630.07572266 234.79101562 630.62988281 C228.2438614 639.41740784 221.24522328 647.7816104 214 656 C213.16210938 656.95132813 212.32421875 657.90265625 211.4609375 658.8828125 C205.60757498 665.38856218 199.48717757 671.61285022 193.3125 677.8125 C192.51642334 678.61324951 191.72034668 679.41399902 190.90014648 680.23901367 C186.09488128 685.03129572 181.17481529 689.6100957 176 694 C175.04589233 694.81416382 175.04589233 694.81416382 174.07250977 695.64477539 C157.65043891 709.56581343 140.3602996 721.77805826 122 733 C121.31679688 733.42345703 120.63359375 733.84691406 119.9296875 734.28320312 C77.10451517 760.77603032 27.42132947 778.61237702 -22.28515625 786.41650391 C-24.71954729 786.79887737 -27.15198756 787.19393466 -29.58203125 787.60302734 C-88.1991692 797.29581248 -150.9826187 791.5627696 -207.31396484 772.88720703 C-209.98986753 772.00334679 -212.67545734 771.15540226 -215.36328125 770.30859375 C-280.16360707 749.35841698 -346.78956754 706.41715996 -389.109375 652.38671875 C-390.92387814 650.09609598 -392.83110257 647.95901388 -394.8125 645.8125 C-406.27295349 632.99577982 -415.70084361 618.41148881 -425 604 C-425.41846191 603.35272949 -425.83692383 602.70545898 -426.26806641 602.03857422 C-443.1954419 575.57258228 -455.75755566 546.63599981 -465.953125 517.02636719 C-466.79385075 514.59594824 -467.65281414 512.17473116 -468.53125 509.7578125 C-478.02625229 482.91617142 -482.34595342 454.22881264 -485 426 C-485.09788818 425.04480469 -485.19577637 424.08960938 -485.29663086 423.10546875 C-486.21393702 413.11575095 -486.18609633 403.11545653 -486.18530273 393.09228516 C-486.18747582 390.03403511 -486.20565266 386.97615472 -486.22460938 383.91796875 C-486.26241212 370.83082837 -485.53828514 357.99519866 -484 345 C-483.85925049 343.78860352 -483.71850098 342.57720703 -483.57348633 341.32910156 C-477.64025191 293.64469091 -462.67878978 248.79249263 -441 206 C-440.5678418 205.14422363 -440.13568359 204.28844727 -439.69042969 203.40673828 C-434.10786955 192.4902603 -427.66651521 182.19481465 -420.875 172 C-420.50131287 171.43863342 -420.12762573 170.87726685 -419.74261475 170.29888916 C-412.52527328 159.4972773 -404.83160913 149.07042946 -396.625 139 C-396.07827637 138.32775391 -395.53155273 137.65550781 -394.96826172 136.96289062 C-390.62696909 131.67040885 -386.08932108 126.60321247 -381.41796875 121.6015625 C-379.3701333 119.39823712 -377.39123109 117.16118417 -375.4375 114.875 C-369.47200182 108.01039563 -362.9499235 101.6676139 -356.0390625 95.76171875 C-353.7730777 93.80394261 -351.57856506 91.77771052 -349.375 89.75 C-343.17377426 84.16322498 -336.61821727 79.07743221 -330 74 C-329.36787598 73.51096191 -328.73575195 73.02192383 -328.08447266 72.51806641 C-318.06512918 64.77848294 -307.78556852 57.63107895 -297 51 C-296.13439453 50.46648926 -295.26878906 49.93297852 -294.37695312 49.38330078 C-270.08416238 34.53246805 -244.80601862 22.58149013 -218 13 C-217.175 12.70158203 -216.35 12.40316406 -215.5 12.09570312 C-184.96816942 1.13622002 -153.15673962 -4.58025143 -121 -8 C-119.51197876 -8.15903809 -119.51197876 -8.15903809 -117.99389648 -8.32128906 C-78.76851846 -12.06182755 -38.43859196 -7.96897638 0 0 Z " fill="#FEFEFE" transform="translate(686,284)"/>
<path d="M0 0 C3.25551702 1.18020534 4.67690719 2.56688098 6.375 5.53515625 C6.79652344 6.25348633 7.21804688 6.97181641 7.65234375 7.71191406 C8.31943359 8.8754541 8.31943359 8.8754541 9 10.0625 C25.42426977 37.78123712 46.51167837 62.52639763 69.1875 85.3125 C69.84073242 85.97040527 70.49396484 86.62831055 71.16699219 87.30615234 C75.61473266 91.73932843 80.23628002 95.91029107 85 100 C86.44632812 101.2684375 86.44632812 101.2684375 87.921875 102.5625 C109.12612491 120.83798611 132.23177785 136.15128741 156.68261719 149.70996094 C158.66562667 150.81386129 160.63533753 151.93694757 162.6015625 153.0703125 C181.09013592 163.41871776 201.4468634 171.76855165 221.59814453 178.22607422 C224.07283622 179.02346928 226.53356481 179.85728562 228.99609375 180.69140625 C288.39740265 200.29026476 353.57488198 203.63688167 415 193 C415.67899353 192.88400452 416.35798706 192.76800903 417.05755615 192.64849854 C453.72811017 186.3379907 489.63826536 174.4301661 523 158 C524.09199707 157.46358887 525.18399414 156.92717773 526.30908203 156.37451172 C557.98577562 140.68342462 587.5564529 121.19237363 613.59375 97.1953125 C615.58851464 95.37541359 617.61332806 93.61176815 619.66015625 91.8515625 C624.62058389 87.5197099 629.28410421 82.90736025 633.9375 78.25 C634.8234082 77.36401123 635.70931641 76.47802246 636.62207031 75.56518555 C641.80468921 70.3370294 646.7088782 65.08828276 651.22265625 59.26953125 C652.9486643 57.06555174 654.77754015 55.0449674 656.6875 53 C668.26113648 40.10960248 678.45002971 25.14177655 687.25 10.21875 C687.60916504 9.61401855 687.96833008 9.00928711 688.33837891 8.38623047 C689.30928636 6.73664818 690.26084205 5.0757188 691.2109375 3.4140625 C693 1 693 1 694.76171875 0.16943359 C698.05083066 -0.07954586 699.77690317 1.21424978 702.6015625 2.875 C703.71821289 3.52291504 704.83486328 4.17083008 705.98535156 4.83837891 C707.19867407 5.55874015 708.41188737 6.27928538 709.625 7 C710.88438682 7.73606968 712.14448889 8.47091684 713.40527344 9.20458984 C716.00382607 10.71872367 718.59853156 12.23915276 721.19042969 13.76464844 C725.78905078 16.46816473 730.41412047 19.12447241 735.04003906 21.78100586 C745.32922511 27.69173161 755.57845648 33.67009826 765.82128906 39.66064453 C773.52024834 44.15527427 781.25468246 48.58599899 789 53 C798.72115617 58.5400173 808.40894658 64.13374809 818.06689453 69.78344727 C828.59084625 75.93766742 839.15380137 82.02369996 849.71777344 88.10888672 C855.14659942 91.23680148 860.57319281 94.36858448 866 97.5 C868.16665583 98.75001879 870.3333225 100.00001878 872.5 101.25 C876.83333333 103.75 881.16666667 106.25 885.5 108.75 C887.11165039 109.6795752 887.11165039 109.6795752 888.75585938 110.62792969 C890.90351624 111.86726088 893.05065943 113.10748268 895.19726562 114.34863281 C900.28567321 117.28925546 905.37897657 120.22027493 910.49072266 123.12011719 C912.91265165 124.49477728 915.33167728 125.87450139 917.75048828 127.25463867 C919.46495784 128.23006323 921.18361281 129.1981195 922.90234375 130.16601562 C923.93488281 130.75576172 924.96742187 131.34550781 926.03125 131.953125 C927.40120117 132.72897949 927.40120117 132.72897949 928.79882812 133.52050781 C931 135 931 135 933 138 C917.00385584 165.24257999 893.18437676 178.72600167 866.4475708 193.90118408 C860.24031985 197.42656662 854.05585292 200.99105869 847.875 204.5625 C846.81104004 205.17697998 845.74708008 205.79145996 844.65087891 206.42456055 C842.50640646 207.6632315 840.36203766 208.90208192 838.21777344 210.14111328 C832.81329355 213.26324605 827.40652588 216.38141204 822 219.5 C819.8333225 220.74998122 817.66665583 221.99998121 815.5 223.25 C750.49999999 260.75000001 750.49999999 260.75000001 747.24951172 262.62524414 C745.08442929 263.87435518 742.91939018 265.12354129 740.75439453 266.37280273 C735.31384294 269.51202309 729.87252784 272.64990563 724.4296875 275.78515625 C713.97793801 281.80747329 703.53700452 287.84669337 693.125 293.9375 C683.85500223 299.35921178 674.54168248 304.70204915 665.21154785 310.01922607 C656.0871716 315.22045129 646.99867226 320.48027878 637.93310547 325.78344727 C627.40915375 331.93766742 616.84619863 338.02369996 606.28222656 344.10888672 C600.85340058 347.23680148 595.42680719 350.36858448 590 353.5 C587.83334417 354.75001879 585.6666775 356.00001878 583.5 357.25 C582.4275 357.86875 581.355 358.4875 580.25 359.125 C542.33333333 381 504.41666667 402.875 466.5 424.75 C464.89064575 425.67848755 464.89064575 425.67848755 463.2487793 426.62573242 C461.08621417 427.8733474 458.92361661 429.12090616 456.76098633 430.3684082 C451.28129629 433.52943449 445.80220642 436.69149309 440.32421875 439.85546875 C434.9123254 442.98094819 429.49870485 446.10341294 424.08349609 449.22314453 C422.04951882 450.3952179 420.01598019 451.56805286 417.98291016 452.74169922 C415.15692155 454.37234876 412.32877409 455.99918857 409.5 457.625 C408.68233154 458.09768311 407.86466309 458.57036621 407.0222168 459.05737305 C399.35146982 463.45592231 391.71705022 467.7679114 383.1875 470.25 C382.12917969 470.56453125 381.07085938 470.8790625 379.98046875 471.203125 C375.69733751 472.34828722 371.70373623 473.12212271 367.26416016 473.17700195 C366.35195709 473.18983719 365.43975403 473.20267242 364.49990845 473.21589661 C363.52282928 473.22328354 362.54575012 473.23067047 361.5390625 473.23828125 C360.51630219 473.246353 359.49354187 473.25442474 358.43978882 473.26274109 C356.27286458 473.276557 354.10591881 473.28729027 351.93896484 473.29516602 C349.74749261 473.3066287 347.55604703 473.32698858 345.36474609 473.35668945 C311.82060843 473.81081142 288.54652532 459.25548086 260.265625 442.66796875 C253.90228965 438.93674029 247.51650445 435.24521942 241.125 431.5625 C240.04524902 430.94020508 238.96549805 430.31791016 237.85302734 429.67675781 C235.66285466 428.41471274 233.47258757 427.15283148 231.28222656 425.89111328 C225.85340058 422.76319852 220.42680719 419.63141552 215 416.5 C212.83334417 415.24998121 210.6666775 413.99998122 208.5 412.75 C169.5 390.25 130.5 367.75 91.5 345.25 C90.42733887 344.63116943 89.35467773 344.01233887 88.24951172 343.37475586 C86.08442929 342.12564482 83.91939018 340.87645871 81.75439453 339.62719727 C76.31384294 336.48797691 70.87252784 333.35009437 65.4296875 330.21484375 C54.97793801 324.19252671 44.53700452 318.15330663 34.125 312.0625 C25.44737759 306.98724877 16.73394432 301.97741233 8 297 C-1.72115617 291.4599827 -11.40894658 285.86625191 -21.06689453 280.21655273 C-31.59084625 274.06233258 -42.15380137 267.97630004 -52.71777344 261.89111328 C-58.14659942 258.76319852 -63.57319281 255.63141552 -69 252.5 C-71.16665583 251.24998121 -73.3333225 249.99998122 -75.5 248.75 C-108 230 -108 230 -140.5 211.25 C-142.1094751 210.32151245 -142.1094751 210.32151245 -143.75146484 209.37426758 C-145.91337884 208.12693452 -148.07516317 206.8793767 -150.23681641 205.6315918 C-155.72514585 202.46391168 -161.21582533 199.30043239 -166.7109375 196.14453125 C-173.14957591 192.44504957 -179.57727257 188.72702318 -186 185 C-186.95793457 184.44650879 -187.91586914 183.89301758 -188.90283203 183.32275391 C-209.40610376 171.44299097 -224.76162829 158.42750439 -237 138 C-234.22262654 135.01114732 -231.56071009 132.98949092 -227.984375 131.0390625 C-226.9931665 130.49258057 -226.00195801 129.94609863 -224.98071289 129.38305664 C-223.91457764 128.80289795 -222.84844238 128.22273926 -221.75 127.625 C-219.47166234 126.36768476 -217.19434262 125.10852346 -214.91796875 123.84765625 C-214.33844955 123.52721848 -213.75893036 123.2067807 -213.16184998 122.87663269 C-207.4118589 119.69025847 -201.73201056 116.389351 -196.0625 113.0625 C-194.07168508 111.89571304 -192.080799 110.7290475 -190.08984375 109.5625 C-189.0932373 108.97855469 -188.09663086 108.39460937 -187.06982422 107.79296875 C-181.7667275 104.69562962 -176.44605065 101.62886142 -171.125 98.5625 C-170.04484619 97.93996338 -168.96469238 97.31742676 -167.85180664 96.67602539 C-165.66203666 95.41423174 -163.47217645 94.15259466 -161.28222656 92.89111328 C-155.85340058 89.76319852 -150.42680719 86.63141552 -145 83.5 C-142.83334417 82.24998121 -140.6666775 80.99998122 -138.5 79.75 C-137.4275 79.13125 -136.355 78.5125 -135.25 77.875 C-106 61 -76.75 44.125 -47.5 27.25 C-46.42556641 26.63012207 -45.35113281 26.01024414 -44.24414062 25.37158203 C-42.09704864 24.13289998 -39.94991386 22.8942921 -37.80273438 21.65576172 C-32.70411191 18.7146665 -27.60594704 15.77278587 -22.50927734 12.82830811 C-20.08952335 11.43041399 -17.66952737 10.03293911 -15.24951172 8.63549805 C-13.53198948 7.64347676 -11.81481948 6.65084571 -10.09765625 5.65820312 C-8.54884766 4.76391602 -8.54884766 4.76391602 -6.96875 3.8515625 C-5.59879883 3.05999756 -5.59879883 3.05999756 -4.20117188 2.25244141 C-2.82011309 1.46663489 -1.42121505 0.71060752 0 0 Z " fill="#004482" transform="translate(252,876)"/>
<path d="M0 0 C14.67651211 13.436067 28.02429513 29.09576943 37.71582031 46.57080078 C37.71582031 47.23080078 37.71582031 47.89080078 37.71582031 48.57080078 C37.00377441 48.97693604 36.29172852 49.38307129 35.55810547 49.80151367 C19.32820123 59.06109841 3.12101886 68.35855102 -13.05761719 77.70751953 C-16.31941976 79.59115128 -19.58279813 81.47202399 -22.84667969 83.35205078 C-33.3013092 89.37519817 -43.74466411 95.41602524 -54.15917969 101.50830078 C-63.42917746 106.93001256 -72.74249721 112.27284993 -82.07263184 117.59002686 C-91.19700809 122.79125207 -100.28550743 128.05107956 -109.35107422 133.35424805 C-119.87502593 139.5084682 -130.43798106 145.59450074 -141.00195312 151.6796875 C-146.43077911 154.80760226 -151.8573725 157.93938526 -157.28417969 161.07080078 C-159.45083551 162.32081957 -161.61750218 163.57081957 -163.78417969 164.82080078 C-164.85667969 165.43955078 -165.92917969 166.05830078 -167.03417969 166.69580078 C-196.28417969 183.57080078 -225.53417969 200.44580078 -254.78417969 217.32080078 C-256.39510498 218.25025513 -256.39510498 218.25025513 -258.03857422 219.19848633 C-260.19041882 220.43983553 -262.34243516 221.68088708 -264.49462891 222.92163086 C-269.5397003 225.83060081 -274.5830639 228.74240601 -279.62017822 231.66513062 C-281.4009797 232.69823018 -283.18233827 233.73036249 -284.96386719 234.76220703 C-287.19675051 236.05586166 -289.42858879 237.35132242 -291.65917969 238.64892578 C-297.12300373 241.81182647 -302.59929037 244.82378592 -308.28417969 247.57080078 C-332.86291275 211.4707866 -341.0559642 160.08830643 -333.69506836 117.4309082 C-333.25453285 115.13693306 -332.77550892 112.85440319 -332.28417969 110.57080078 C-332.02677002 109.30719727 -332.02677002 109.30719727 -331.76416016 108.01806641 C-321.06909477 56.13887523 -290.14694509 10.52088402 -246.28857422 -19.11132812 C-171.01833535 -68.60082257 -71.52394401 -62.11622491 0 0 Z " fill="#659AD2" transform="translate(735.2841796875,527.42919921875)"/>
<path d="M0 0 C1.97636415 1.10865224 3.95822099 2.20756678 5.9453125 3.296875 C15.82433728 8.809515 25.68651923 14.33968743 35.41674805 20.11157227 C41.7283517 23.85347839 48.07992266 27.52432671 54.4375 31.1875 C55.54472412 31.82550537 56.65194824 32.46351074 57.79272461 33.12084961 C60.06337068 34.42889477 62.33412358 35.73675448 64.60498047 37.04443359 C70.0716998 40.19332054 75.53574887 43.34683264 81 46.5 C83.16665311 47.7500235 85.33331979 49.00002347 87.5 50.25 C91.83333333 52.75 96.16666667 55.25 100.5 57.75 C101.57338623 58.3692334 102.64677246 58.9884668 103.75268555 59.62646484 C105.91049803 60.87141282 108.06821353 62.1165289 110.22583008 63.36181641 C115.77716592 66.56552651 121.33036541 69.7659363 126.88671875 72.9609375 C146.49963726 84.24314979 146.49963726 84.24314979 155.0625 89.3125 C155.66989014 89.66747559 156.27728027 90.02245117 156.90307617 90.38818359 C160.88301206 92.76602412 160.88301206 92.76602412 162 95 C160.62197845 97.57089043 159.19469568 99.98651748 157.625 102.4375 C157.16746338 103.1588916 156.70992676 103.8802832 156.23852539 104.62353516 C152.25472351 110.800388 147.85521951 116.47956358 143 122 C142.31679688 122.79277344 141.63359375 123.58554687 140.9296875 124.40234375 C138.66483165 126.98060216 136.34811776 129.49725886 134 132 C133.26402588 132.78697266 133.26402588 132.78697266 132.51318359 133.58984375 C97.55816174 170.65265235 47.78593558 192.65933866 -3.06460571 194.23306274 C-18.57999348 194.61309412 -33.79167062 194.37519935 -49 191 C-50.22638184 190.75056641 -50.22638184 190.75056641 -51.47753906 190.49609375 C-81.57145557 184.37529717 -109.99946258 171.19406374 -134 152 C-135.01320313 151.19175781 -136.02640625 150.38351562 -137.0703125 149.55078125 C-156.02401569 134.12266631 -171.80020477 116.19299775 -184 95 C-181.60030318 92.34434213 -179.03555811 90.72001447 -175.93359375 88.953125 C-174.90427734 88.36337891 -173.87496094 87.77363281 -172.81445312 87.16601562 C-171.70005859 86.53373047 -170.58566406 85.90144531 -169.4375 85.25 C-168.26598539 84.58058653 -167.09476624 83.91065574 -165.92382812 83.24023438 C-163.49056166 81.84760003 -161.05603768 80.45720253 -158.62060547 79.06835938 C-153.06842407 75.89970234 -147.53519338 72.69820559 -142 69.5 C-139.83342291 68.24984475 -137.66675593 66.99984527 -135.5 65.75 C-134.4275 65.13125 -133.355 64.5125 -132.25 63.875 C-111.66666667 52 -91.08333333 40.125 -70.5 28.25 C-69.4265332 27.63068604 -68.35306641 27.01137207 -67.24707031 26.37329102 C-65.09019097 25.12895002 -62.93329008 23.88464636 -60.77636719 22.64038086 C-56.36951054 20.09814295 -51.96273298 17.55576942 -47.55664062 15.01220703 C-46.98264023 14.68087265 -46.40863983 14.34953827 -45.81724548 14.00816345 C-44.09013825 13.01084332 -42.36354868 12.0126269 -40.63696289 11.0144043 C-38.40789736 9.72979542 -36.17538767 8.45114139 -33.93920898 7.17895508 C-29.41274175 4.59801668 -24.94009575 2.02306361 -20.64453125 -0.9296875 C-20.02223633 -1.340979 -19.39994141 -1.75227051 -18.75878906 -2.17602539 C-17.22353065 -3.20461317 -15.72082545 -4.28138465 -14.22265625 -5.36328125 C-8.64105402 -6.46607054 -4.64286252 -2.87227614 0 0 Z " fill="#004482" transform="translate(611,681)"/>
<path d="M0 0 C14.52 0 29.04 0 44 0 C44 14.52 44 29.04 44 44 C58.85 44 73.7 44 89 44 C89 58.85 89 73.7 89 89 C74.15 89 59.3 89 44 89 C44 103.52 44 118.04 44 133 C29.48 133 14.96 133 0 133 C0 118.48 0 103.96 0 89 C-14.85 89 -29.7 89 -45 89 C-45 74.15 -45 59.3 -45 44 C-30.15 44 -15.3 44 0 44 C0 29.48 0 14.96 0 0 Z " fill="#FCFDFE" transform="translate(1078,609)"/>
<path d="M0 0 C14.85 0 29.7 0 45 0 C45 14.85 45 29.7 45 45 C59.52 45 74.04 45 89 45 C89 59.52 89 74.04 89 89 C74.15 89 59.3 89 44 89 C44 103.85 44 118.7 44 134 C29.48 134 14.96 134 0 134 C0 119.15 0 104.3 0 89 C-14.52 89 -29.04 89 -44 89 C-44 74.48 -44 59.96 -44 45 C-29.48 45 -14.96 45 0 45 C0 30.15 0 15.3 0 0 Z " fill="#FDFEFE" transform="translate(911,608)"/>
</svg>
