<?xml version="1.0" encoding="UTF-8"?>
<svg version="1.1" xmlns="http://www.w3.org/2000/svg" width="1200" height="2195">
<path d="M0 0 C0.71810852 -0.00067474 1.43621704 -0.00134949 2.17608643 -0.00204468 C25.75554264 0.03286996 49.65344108 2.88647364 71.125 13.25 C72.16785156 13.73984375 73.21070313 14.2296875 74.28515625 14.734375 C95.00597356 25.10713217 108.4277212 42.29092798 116.4375 63.76953125 C121.01483678 77.95590958 122.29134923 92.34392902 122.24525452 107.184021 C122.24653615 108.73073278 122.24653615 108.73073278 122.24784368 110.30869126 C122.24947652 113.72632028 122.24401345 117.14389902 122.23852539 120.56152344 C122.23824302 123.02631631 122.23840223 125.49110927 122.2389679 127.9559021 C122.23919481 133.24318831 122.23637852 138.53045919 122.23073006 143.81774139 C122.2225689 151.46206258 122.21999513 159.10637782 122.21874207 166.75070289 C122.21655877 179.15607095 122.20991834 191.5614324 122.20043945 203.96679688 C122.1912466 216.01041633 122.18417495 228.05403399 122.17993164 240.09765625 C122.17953756 241.21305057 122.17953756 241.21305057 122.17913551 242.35097811 C122.17783038 246.0817483 122.17656669 249.8125185 122.17532361 253.54328871 C122.1649735 284.44553159 122.14654737 315.34776232 122.125 346.25 C103.645 346.25 85.165 346.25 66.125 346.25 C65.3 341.031875 64.475 335.81375 63.625 330.4375 C63.36396484 328.79418701 63.10292969 327.15087402 62.83398438 325.45776367 C62.52944336 323.51994019 62.52944336 323.51994019 62.21875 321.54296875 C62.11079102 320.86737915 62.00283203 320.19178955 61.89160156 319.49572754 C61.4557341 316.70773246 61.125 314.07763513 61.125 311.25 C60.68857178 311.59144043 60.25214355 311.93288086 59.80249023 312.28466797 C38.34227314 329.02111422 16.17742545 344.29719034 -10.875 350.25 C-11.91527344 350.48904053 -11.91527344 350.48904053 -12.9765625 350.73291016 C-44.70158874 357.73404663 -81.94878025 354.82459196 -109.875 337.25 C-128.3683848 324.69779709 -139.80493489 306.02651244 -144.3671875 284.3125 C-149.20823967 255.11723155 -146.5621253 223.75761457 -129.2578125 198.9296875 C-127.52763288 196.64138542 -125.72643553 194.4411835 -123.875 192.25 C-123.21886719 191.44820312 -122.56273437 190.64640625 -121.88671875 189.8203125 C-94.69003129 157.90025154 -47.7272564 146.78540101 -7.75 143.5859375 C-6.12525264 143.47035057 -4.50024316 143.35839281 -2.875 143.25 C-2.05773437 143.19360352 -1.24046875 143.13720703 -0.3984375 143.07910156 C16.75645427 141.95712915 33.94333686 142.14466062 51.125 142.25 C51.05533641 136.66690562 50.96700704 131.08450511 50.86254883 125.50195312 C50.82962037 123.60912888 50.80149257 121.71621398 50.77856445 119.82324219 C50.5567114 101.98059221 49.69023537 83.28126637 36.9375 69.3125 C18.42838535 53.02447911 -7.46801113 52.14147896 -30.875 53.25 C-58.53387022 55.07864991 -84.97895805 61.79239295 -111.203125 70.40551758 C-113.41749475 71.10539925 -115.61494104 71.72097132 -117.875 72.25 C-121.11374575 63.43284673 -123.0173151 54.33614057 -125.0625 45.1875 C-125.43382591 43.54222311 -125.8055672 41.89703992 -126.17773438 40.25195312 C-127.0816185 36.25236684 -127.9798615 32.25155229 -128.875 28.25 C-88.48763034 9.57911763 -44.46641321 0.03802972 0 0 Z M-63.875 212.25 C-73.84248343 223.24638494 -76.41580816 237.33511044 -76.12109375 251.828125 C-75.13840775 265.49213991 -71.39466435 279.75545375 -60.875 289.25 C-55.076683 293.86407499 -48.88326248 296.91391251 -41.875 299.25 C-41.215 299.476875 -40.555 299.70375 -39.875 299.9375 C-18.86305005 305.84711092 4.62767909 298.21392677 23.0703125 288.1484375 C31.66602106 283.24893826 39.40715533 277.41982099 47.125 271.25 C47.83146667 270.86885544 48.53793335 270.48771088 49.26580811 270.09501648 C51.62023272 267.75854318 51.59641957 266.03435023 51.62268066 262.79983521 C51.60829956 262.06256195 51.59391846 261.3252887 51.57910156 260.56567383 C51.57968567 259.7849501 51.58026978 259.00422638 51.58087158 258.19984436 C51.57808411 255.61845484 51.54696213 253.0382191 51.515625 250.45703125 C51.50816494 248.6677056 51.5024709 246.87837178 51.49847412 245.08903503 C51.48319924 240.37880915 51.44390162 235.66907641 51.3996582 230.95904541 C51.35874536 226.15310335 51.34047164 221.34708163 51.3203125 216.54101562 C51.27740904 207.11046038 51.2091354 197.68027119 51.125 188.25 C44.12230698 188.172585 37.11972798 188.12084269 30.11669922 188.08520508 C27.7449125 188.07031537 25.37315231 188.04999694 23.00146484 188.02368164 C-7.42542739 187.69505574 -41.35217956 189.09384894 -63.875 212.25 Z " fill="#5282A1" transform="translate(368.875,1708.75)"/>
<path d="M0 0 C12.15928462 11.43945497 19.89135647 24.40930567 24.6875 40.3125 C24.87860352 40.94365723 25.06970703 41.57481445 25.26660156 42.22509766 C29.42586814 57.21279963 29.08800848 72.36799145 29.03955078 87.77685547 C29.03898587 90.30105586 29.03930478 92.82525658 29.04043579 95.34945679 C29.0408892 100.7589552 29.03526745 106.16839143 29.02396011 111.57787704 C29.0076229 119.39882277 29.00248875 127.21974524 28.99998413 135.04070617 C28.99561984 147.7333682 28.98234531 160.42600435 28.96337891 173.11865234 C28.94498719 185.43961458 28.93084684 197.76056976 28.92236328 210.08154297 C28.92183783 210.84253571 28.92131239 211.60352845 28.92077102 212.38758157 C28.91816072 216.20571489 28.91563335 220.02384825 28.91314721 223.84198165 C28.89245419 255.45717738 28.85560588 287.07232491 28.8125 318.6875 C10.3325 318.6875 -8.1475 318.6875 -27.1875 318.6875 C-28.8375 307.4675 -30.4875 296.2475 -32.1875 284.6875 C-37.01527356 287.88546227 -37.01527356 287.88546227 -41.60546875 291.31640625 C-75.75292285 317.99083361 -114.3305356 329.77977213 -157.72265625 325.1875 C-177.89235288 322.53966315 -197.98672799 315.55536849 -213.1875 301.6875 C-214.10015625 300.91212891 -214.10015625 300.91212891 -215.03125 300.12109375 C-230.79316062 285.82790662 -237.55357513 263.19890907 -239.1875 242.6875 C-240.46765471 212.99699384 -235.09707458 187.14096496 -216.1875 163.6875 C-215.50816406 162.81609375 -214.82882812 161.9446875 -214.12890625 161.046875 C-190.24236199 132.01775481 -145.7848431 120.77513718 -110.26367188 116.97998047 C-87.2482652 114.79169022 -64.2908933 114.39485252 -41.1875 114.6875 C-41.28286712 110.28045369 -41.38929492 105.87383656 -41.50488281 101.46728516 C-41.54256855 99.97614364 -41.57751152 98.48492963 -41.609375 96.99365234 C-42.16898665 69.1694708 -42.16898665 69.1694708 -54.1875 44.6875 C-54.66574219 44.07261719 -55.14398437 43.45773437 -55.63671875 42.82421875 C-66.22247835 30.79858253 -84.92836071 26.84524957 -100.1875 25.6875 C-135.0139893 23.99350767 -168.06058802 31.77160254 -201.1875 41.6875 C-202.19071289 41.9875293 -203.19392578 42.28755859 -204.22753906 42.59667969 C-206.54803852 43.29193295 -208.86806182 43.98871594 -211.1875 44.6875 C-213.76864172 35.34984024 -216.16820031 25.96524745 -218.5 16.5625 C-218.77859863 15.47203369 -219.05719727 14.38156738 -219.34423828 13.25805664 C-219.59802246 12.22156982 -219.85180664 11.18508301 -220.11328125 10.1171875 C-220.34442627 9.19147949 -220.57557129 8.26577148 -220.8137207 7.31201172 C-221.22909792 4.39541796 -221.16243386 2.4704768 -220.1875 -0.3125 C-218.57128906 -1.50341797 -218.57128906 -1.50341797 -216.453125 -2.3046875 C-215.66260742 -2.6135791 -214.87208984 -2.9224707 -214.05761719 -3.24072266 C-213.19297852 -3.55315918 -212.32833984 -3.8655957 -211.4375 -4.1875 C-210.5393457 -4.52700684 -209.64119141 -4.86651367 -208.71582031 -5.21630859 C-205.88191235 -6.27471461 -203.03731836 -7.29779195 -200.1875 -8.3125 C-199.32382812 -8.62509766 -198.46015625 -8.93769531 -197.5703125 -9.25976562 C-139.29410166 -30.19437367 -51.33938504 -44.24177421 0 0 Z M-157.5625 185 C-166.25971865 195.33685823 -168.57185019 207.31252334 -168.5 220.4375 C-168.49436035 221.50572998 -168.4887207 222.57395996 -168.48291016 223.67456055 C-168.2630302 237.92648239 -164.92487694 249.81575831 -155.0625 260.5 C-143.3224747 271.47437148 -127.96718975 274.47248745 -112.3828125 273.96875 C-86.66863903 272.56296375 -59.20832761 257.70832761 -41.1875 239.6875 C-40.9996925 237.15773465 -40.93558094 234.73842595 -40.96044922 232.20849609 C-40.96015717 231.43767197 -40.95986511 230.66684784 -40.95956421 229.87266541 C-40.96096026 227.31864255 -40.97653421 224.76490954 -40.9921875 222.2109375 C-40.99591666 220.44259806 -40.99876409 218.67425655 -41.00076294 216.90591431 C-41.00840707 212.24680905 -41.02806222 207.58782806 -41.0501709 202.92877197 C-41.07061256 198.17649008 -41.07976106 193.42418816 -41.08984375 188.671875 C-41.11130741 179.34369534 -41.14545272 170.01560799 -41.1875 160.6875 C-48.35092086 160.61020005 -55.51423085 160.55838822 -62.67797852 160.52270508 C-65.10510272 160.50779901 -67.53220088 160.48746714 -69.95922852 160.46118164 C-100.27126687 160.14157983 -135.21787928 161.60928281 -157.5625 185 Z " fill="#5282A1" transform="translate(1095.1875,1736.3125)"/>
<path d="M0 0 C21.7975496 17.07264723 33.34340708 50.62465832 38 77 C38.17587646 77.97630371 38.35175293 78.95260742 38.53295898 79.95849609 C40.14427326 89.86997752 40.35876587 99.60361561 40.3125 109.625 C40.31034485 110.46548889 40.3081897 111.30597778 40.30596924 112.17193604 C40.25446581 124.69203203 39.76061341 136.74741445 37 149 C36.81195801 149.89654297 36.62391602 150.79308594 36.43017578 151.71679688 C27.06197071 195.86735123 4.62734038 236.65470154 -23 272 C-23.85710107 273.11302703 -24.71385462 274.22632172 -25.5703125 275.33984375 C-35.28102656 287.8994534 -45.66933147 299.79445777 -56.50439453 311.39111328 C-58.00082751 313.00089019 -59.4846195 314.62140976 -60.96484375 316.24609375 C-66.12008195 321.89702794 -71.35382898 327.45285179 -76.75 332.875 C-77.256521 333.38611328 -77.76304199 333.89722656 -78.28491211 334.42382812 C-81.71309891 337.83817597 -85.29496072 341.02972887 -88.95166016 344.19677734 C-92.32409567 347.16564608 -95.5580145 350.27820317 -98.8125 353.375 C-104.10609832 358.37467927 -109.47301239 363.16450987 -115.171875 367.703125 C-118.62808662 370.5101035 -121.96538985 373.4396257 -125.3125 376.375 C-131.83468137 382.07579597 -138.56733913 387.44609704 -145.40820312 392.75634766 C-152.06073255 397.95389135 -158.51323891 403.39969708 -164.9375 408.875 C-165.46214844 409.32029053 -165.98679687 409.76558105 -166.52734375 410.22436523 C-176.43161154 418.71352505 -185.87174672 427.68502831 -195.09204102 436.90673828 C-196.69204519 438.50453893 -198.29993615 440.09411551 -199.90820312 441.68359375 C-206.39016596 448.13004714 -212.34873838 454.79916484 -218 462 C-218.56227295 462.69770508 -219.1245459 463.39541016 -219.70385742 464.11425781 C-249.24758503 500.82108086 -268.60726305 544.22181728 -263.5390625 592.12109375 C-257.47096464 638.3308841 -231.36805553 679.01929449 -204.97363281 716.21728516 C-148.32077728 796.09472793 -148.32077728 796.09472793 -145 814 C-149.82351664 810.5796882 -154.13471041 807.00170489 -158.25 802.7578125 C-159.93952399 801.06074599 -161.68283095 799.49619241 -163.5 797.9375 C-169.4803267 792.77371791 -175.19593338 787.32073692 -180.95605469 781.91455078 C-182.98961408 780.00972842 -185.02912754 778.11148969 -187.0703125 776.21484375 C-194.05276458 769.7157922 -200.92179542 763.13839635 -207.62719727 756.35351562 C-210.93167923 753.02363451 -214.33759281 749.90659468 -217.90625 746.8671875 C-224.77911345 740.73802943 -231.1980448 734.07027006 -237.16015625 727.05859375 C-239.5049627 724.43499927 -241.99650367 721.9703124 -244.5 719.5 C-248.22597997 715.81852619 -251.79856242 712.06704857 -255.19921875 708.08203125 C-257.37324202 705.56846422 -259.62390488 703.13223771 -261.875 700.6875 C-265.91279322 696.25503526 -269.77307434 691.72257823 -273.53515625 687.0546875 C-275.34085175 684.8168842 -277.15979312 682.59518101 -278.99609375 680.3828125 C-315.92462459 635.7336789 -345.24826091 585.54874309 -342 526 C-341.33256953 519.48292652 -339.92988888 513.25254421 -338 507 C-337.68651611 505.9780957 -337.68651611 505.9780957 -337.36669922 504.93554688 C-330.27441739 482.68650097 -316.96996183 463.65768252 -302 446 C-301.17145508 445.00307129 -300.34291016 444.00614258 -299.48925781 442.97900391 C-292.17734251 434.24181893 -284.38066955 426.0998149 -276.28955078 418.08374023 C-274.23271993 416.04537507 -272.18421383 413.99891053 -270.13671875 411.95117188 C-268.80516094 410.62452464 -267.47314601 409.29833602 -266.140625 407.97265625 C-265.24189667 407.07559715 -265.24189667 407.07559715 -264.32501221 406.16041565 C-260.03782268 401.9202781 -255.56784723 397.93436291 -251 394 C-249.84420795 392.9892457 -248.68912478 391.97767944 -247.53515625 390.96484375 C-238.86317021 383.39313687 -230.0466103 376.01479283 -221.12744141 368.73632812 C-219.02410465 367.0196732 -216.92403891 365.29907853 -214.82421875 363.578125 C-207.7037552 357.75452729 -200.51908543 352.03799492 -193.20703125 346.45703125 C-188.01239256 342.48954806 -182.89087648 338.42827148 -177.75732422 334.38232422 C-176.02979098 333.02343381 -174.29874535 331.66916291 -172.56640625 330.31640625 C-165.63611767 324.8996856 -158.77842354 319.40268509 -151.96582031 313.83862305 C-147.64422987 310.31545114 -143.27759553 306.85864099 -138.875 303.4375 C-133.45936224 299.2202979 -128.21969565 294.82939974 -123.03417969 290.33300781 C-119.62029005 287.37481404 -116.15881619 284.50293203 -112.625 281.6875 C-105.72476143 276.08804278 -99.36317279 269.91269863 -92.91748047 263.80419922 C-90.18350696 261.23174388 -87.40546982 258.70943811 -84.625 256.1875 C-77.2946358 249.48374767 -70.2186344 242.59470738 -63.76171875 235.0390625 C-61.80394261 232.7730777 -59.77771052 230.57856506 -57.75 228.375 C-13.57331748 179.3231318 10.90536427 118.51923851 7.87548828 52.27783203 C7.02620341 37.90511015 4.2757412 23.87818487 1.51904297 9.77050781 C0.91035842 6.52151805 0.42039211 3.27811378 0 0 Z " fill="#F8981C" transform="translate(752,17)"/>
<path d="M0 0 C25.08 0 50.16 0 76 0 C79.37553963 9.001439 79.37553963 9.001439 80.63134766 12.99243164 C81.06026558 14.35027519 81.06026558 14.35027519 81.49784851 15.73554993 C81.80019913 16.70067001 82.10254974 17.6657901 82.4140625 18.66015625 C82.74062332 19.69685959 83.06718414 20.73356293 83.40364075 21.80168152 C84.47984577 25.22119925 85.55257769 28.64179421 86.625 32.0625 C87.38677371 34.48731299 88.14857433 36.91211752 88.91040039 39.33691406 C95.91994622 61.66853599 102.82895734 84.03104341 109.72592163 106.39764404 C112.75930347 116.2301158 115.80841149 126.05766661 118.8629303 135.8835907 C120.80532513 142.13200589 122.74524455 148.38115733 124.67797852 154.63256836 C127.79171243 164.69998275 130.90684222 174.76451072 134.15625 184.7890625 C141.40190873 207.30049792 146.6789559 230.19230442 151.76171875 253.28125 C152.10297539 254.81763374 152.10297539 254.81763374 152.4511261 256.38505554 C152.65634384 257.33113174 152.86156158 258.27720795 153.07299805 259.25195312 C153.34299873 260.48806335 153.34299873 260.48806335 153.61845398 261.74914551 C154 264 154 264 154 268 C154.66 268 155.32 268 156 268 C156.21269531 266.85402344 156.42539062 265.70804688 156.64453125 264.52734375 C158.14047852 257.81836525 160.5600358 251.41200767 162.84869385 244.94351196 C176.09802039 207.33433981 187.02187468 168.99141694 196.44909668 130.25891113 C196.96108852 128.15955173 197.47798782 126.06148281 197.99707031 123.96386719 C206.19474925 90.6929892 212.63582512 57.01799064 217.79296875 23.14990234 C217.92800308 22.26613922 218.06303741 21.3823761 218.2021637 20.47183228 C218.45003711 18.84145016 218.69491013 17.21060723 218.93589783 15.57919312 C219.7341857 10.29543386 220.83402071 5.2469068 222 0 C246.42 0 270.84 0 296 0 C295.31056665 7.58376687 294.43169581 14.72117014 292.91796875 22.12890625 C292.70817383 23.17539841 292.49837891 24.22189056 292.28222656 25.3000946 C291.5921813 28.7226217 290.89126381 32.14276875 290.1875 35.5625 C289.82260971 37.34315857 289.82260971 37.34315857 289.4503479 39.15979004 C278.05761737 94.58218478 263.74417132 149.26556646 246 203 C245.73249939 203.81239136 245.46499878 204.62478271 245.18939209 205.46179199 C230.02190927 251.47932034 212.04920549 295.89174793 192 340 C162.96 340 133.92 340 104 340 C101.93372099 335.17868232 100.14264634 330.58454065 98.65014648 325.59838867 C98.43437454 324.88942444 98.2186026 324.18046021 97.99629211 323.45001221 C97.28418653 321.10710432 96.57768089 318.76254622 95.87109375 316.41796875 C95.36497879 314.74958144 94.85846443 313.08131524 94.35157776 311.41316223 C93.27254049 307.85982266 92.19577966 304.30580489 91.12084961 300.7512207 C88.56190507 292.2902756 85.99066813 283.83306361 83.41969681 275.37576675 C82.84444401 273.48333942 82.2693281 271.59087047 81.69434738 269.69836044 C76.85758156 253.77948292 71.95484207 237.88255881 67 222 C59.63488382 198.37469056 52.41259447 174.70738043 45.21121979 151.03176498 C35.17682315 118.04460255 25.01571656 85.097658 14.79669571 52.1672554 C12.83900085 45.85812457 10.8843794 39.54804681 8.93209457 33.23723984 C7.53034129 28.70745753 6.12062298 24.18021847 4.70800781 19.65380859 C4.05763807 17.55445633 3.40754687 15.45501774 2.7578125 13.35546875 C2.46929413 12.43832596 2.18077576 11.52118317 1.8835144 10.57624817 C1.50249069 9.33810616 1.50249069 9.33810616 1.11376953 8.07495117 C0.78724899 7.02678474 0.78724899 7.02678474 0.45413208 5.95744324 C0 4 0 4 0 0 Z " fill="#5282A1" transform="translate(531,1715)"/>
<path d="M0 0 C1.02138451 0.97814808 2.02512109 1.9754947 3 3 C2.2064209 3.06993164 1.4128418 3.13986328 0.59521484 3.21191406 C-42.4088078 7.07116988 -104.84524645 14.02758025 -136.1875 47.125 C-138.75265505 50.32987587 -140.18825814 52.76419176 -140 57 C-136.66513928 64.78134169 -128.73229032 68.03475599 -121.34228516 71.08007812 C-102.06672733 78.65046606 -82.23866927 83.77048478 -62 88 C-60.77313477 88.2587793 -59.54626953 88.51755859 -58.28222656 88.78417969 C5.31624271 101.98575618 71.11934662 106.32654934 135.875 109.1875 C136.70446136 109.22433899 137.53392273 109.26117798 138.38851929 109.2991333 C143.55728136 109.52362808 148.72667789 109.7168119 153.89730835 109.89285278 C156.07745541 109.96814118 158.25748178 110.04696703 160.43740845 110.12838745 C189.43182036 111.19724551 218.42662078 111.1996279 247.4375 111.1875 C248.70522247 111.18738041 249.97294495 111.18726082 251.27908325 111.1871376 C292.55737048 111.18221659 333.75878382 110.80317409 375 109 C376.24682556 108.94672546 377.49365112 108.89345093 378.77825928 108.83856201 C481.87799941 104.41945892 587.66863052 98.37264845 765.953125 42.4375 C770.48981262 37.0350323 772.79332778 31.44408007 772.45703125 24.33203125 C771.17656503 17.79837027 767.40512649 11.89458499 763 7 C772.59763262 8.35351229 782.36242648 15.41795982 788.49609375 22.80078125 C792.08714577 27.87708424 793.44378977 32.78694327 793 39 C790.22373045 52.2027041 778.66113305 60.92590703 768 68 C686.02128876 119.89920091 570.07497997 130.53350349 -151.9375 121.8125 C-152.91918152 121.65605011 -153.90086304 121.49960022 -154.91229248 121.33840942 C-165.10344971 119.70314559 -175.2012632 117.8394332 -185.25 115.47265625 C-186.49867104 115.17957329 -186.49867104 115.17957329 -187.77256775 114.88056946 C-204.8135493 110.72846899 -224.48887706 104.83057478 -234.15625 89.12109375 C-236.1416886 84.12992172 -235.76976019 77.9240555 -234.41796875 72.7890625 C-222.10850306 45.24733561 -181.91980806 29.71605367 -155.95477295 19.73620605 C-113.50685396 3.74948239 -43.91463052 -21.84072774 0 0 Z " fill="#5282A1" transform="translate(293,1276)"/>
<path d="M0 0 C24.42 0 48.84 0 74 0 C74.04528358 53.57252443 74.08105741 107.14504424 74.10213066 160.71758404 C74.10463185 167.05309642 74.10722051 173.38860877 74.10986328 179.72412109 C74.1103879 180.98532169 74.11091252 182.24652228 74.11145304 183.54594107 C74.12013785 203.92380684 74.13589716 224.30166125 74.15430559 244.67952029 C74.1730583 265.61425487 74.18412805 286.54898352 74.18817699 307.48372614 C74.19091094 320.38471104 74.19952224 333.28566379 74.21583293 346.18663879 C74.22646623 355.05274793 74.22958638 363.91884063 74.22700275 372.78495567 C74.22573126 377.8878201 74.22757567 382.99062866 74.23841095 388.09348297 C74.34580726 441.43621393 73.1752395 495.33473554 34 536 C33.52191895 536.5038623 33.04383789 537.00772461 32.55126953 537.52685547 C12.72154592 558.35776424 -11.94458598 573.36382515 -39 583 C-44.71399464 576.83270307 -50.22238224 570.59326474 -55.4921875 564.0390625 C-57.42072938 561.70198216 -59.37678549 559.41762314 -61.3828125 557.1484375 C-61.97022217 556.48231445 -62.55763184 555.81619141 -63.1628418 555.12988281 C-64.32272631 553.81952766 -65.48804626 552.51395845 -66.65942383 551.21386719 C-69.53163615 547.96328738 -71.71926277 545.23690429 -73 541 C-71.98421875 540.38253906 -70.9684375 539.76507812 -69.921875 539.12890625 C-39.32683919 520.37843469 -14.84496691 497.55546655 -6.06640625 461.72265625 C1.20634102 430.50443567 -0.84537414 396.6554684 -0.79939139 364.76388073 C-0.79125126 359.85088969 -0.77760236 354.93791322 -0.76467896 350.02493286 C-0.74310542 341.54689246 -0.72489296 333.06885044 -0.70907402 324.59079742 C-0.68619848 312.33350116 -0.65808198 300.07622114 -0.62875474 287.81893882 C-0.58129314 267.92422166 -0.53797212 248.02949777 -0.49731445 228.13476562 C-0.45784962 208.8281197 -0.41639777 189.5214797 -0.37231445 170.21484375 C-0.36959018 169.02142779 -0.36686591 167.82801182 -0.36405908 166.59843174 C-0.3503778 160.61041278 -0.33665788 154.62239392 -0.32291877 148.6343751 C-0.2092914 99.08959511 -0.1031824 49.54480306 0 0 Z " fill="#5282A1" transform="translate(99,1595)"/>
<path d="M0 0 C-8.79186113 5.45959795 -17.65661967 10.78060228 -26.57070923 16.03756714 C-38.45401393 23.05103832 -50.24679531 30.17006643 -61.85644531 37.63037109 C-64.07027206 39.04490049 -66.29492829 40.44075991 -68.5234375 41.83203125 C-145.60873931 89.53178369 -145.60873931 89.53178369 -210.375 152.25 C-212.65452675 155.09070057 -214.93282882 157.92104239 -217.29296875 160.6953125 C-237.31178582 184.33198807 -246.74670284 210.28505642 -245 241 C-241.10060849 277.03208216 -213.57087725 309.64736417 -192.98852539 337.88354492 C-173.55445043 364.59867462 -158.49065957 392.75876736 -163.68359375 427.05859375 C-170.76862149 467.5439092 -198.34903829 501.13756423 -230 526 C-231.0597202 526.88120223 -232.11688648 527.76548215 -233.171875 528.65234375 C-248.50078283 541.41844299 -265.41389192 552.5877168 -283 562 C-283 559 -283 559 -281.71484375 557.67578125 C-281.12832031 557.22589844 -280.54179688 556.77601563 -279.9375 556.3125 C-275.78100671 552.9041755 -272.40014151 549.15420515 -269 545 C-267.8553125 543.61167969 -267.8553125 543.61167969 -266.6875 542.1953125 C-247.55228278 518.47127785 -236.86541559 491.73182825 -239 461 C-241.59090527 437.11352496 -255.07359872 417.5001959 -270.38793945 399.95605469 C-306.30129107 358.75387096 -334.18869568 305.94424506 -331 250 C-328.16003033 214.09418955 -312.01655598 178.54243136 -287.23046875 152.37109375 C-285.33745707 150.35873282 -283.52748089 148.30928342 -281.72265625 146.21875 C-272.40645817 135.53204728 -262.18262609 125.70625067 -251 117 C-249.89614194 116.09785364 -248.79472113 115.19271965 -247.6953125 114.28515625 C-181.82042262 60.15848182 -98.52141013 28.02288719 -18 3 C-17.21915039 2.75459473 -16.43830078 2.50918945 -15.63378906 2.25634766 C-13.65544036 1.63794576 -11.67170302 1.03685205 -9.6875 0.4375 C-8.66011719 0.12683594 -7.63273437 -0.18382812 -6.57421875 -0.50390625 C-3.89738136 -1.01977628 -2.56424235 -0.74037264 0 0 Z " fill="#F8981C" transform="translate(938,321)"/>
<path d="M0 0 C-0.99580078 0.72703125 -0.99580078 0.72703125 -2.01171875 1.46875 C-8.43142443 6.34210322 -14.19674356 10.87924021 -15.5 19.1875 C-14.79032054 23.17944694 -13.66689066 25.57059645 -10.546875 28.24609375 C7.95113277 41.15448613 36.15589206 41.87816902 57.75 44.0625 C59.60782104 44.25335175 59.60782104 44.25335175 61.50317383 44.44805908 C113.48777062 49.76100251 165.84276094 52.74386997 218 48 C218.8109613 47.92694641 219.62192261 47.85389282 220.4574585 47.77862549 C258.65388635 44.30113591 296.76971539 38.9245508 334.3815918 31.37109375 C344.28959105 29.40955509 349.57371477 29.78146284 358.1875 35.125 C380.85088838 48.57092163 404.6210905 59.1403719 429 69 C429 69.66 429 70.32 429 71 C363.71193706 97.75949429 295.38652173 114.3437716 225 120 C223.73704102 120.10296387 222.47408203 120.20592773 221.17285156 120.31201172 C141.03104156 126.53957933 51.06233556 123.22223362 -60.4453125 69.9140625 C-66.92441369 63.86530752 -71.54751891 56.76913393 -72.25 47.8125 C-71.59105093 37.76352665 -67.27898813 31.81340543 -60 25 C-56.82836788 22.35426244 -53.52993789 20.14054648 -50 18 C-48.98035156 17.37609375 -47.96070313 16.7521875 -46.91015625 16.109375 C-35.27644293 9.46153882 -22.68559936 5.20222087 -10 1 C-9.27425781 0.75733398 -8.54851562 0.51466797 -7.80078125 0.26464844 C-4.59598477 -0.74146953 -3.27830992 -1.09276997 0 0 Z " fill="#5282A1" transform="translate(410,1164)"/>
<path d="M0 0 C0 0.66 0 1.32 0 2 C-0.96260742 2.24532471 -1.92521484 2.49064941 -2.91699219 2.7434082 C-85.45527867 18.64746179 -85.45527867 18.64746179 -151.21875 61.0234375 C-152.5903578 64.49360525 -152.15402328 66.47719209 -151 70 C-128.72925788 94.25705155 -65.70136553 90.57264967 -35.0111084 91.91143799 C-33.1026071 91.99548155 -31.19435932 92.08522548 -29.28613281 92.17529297 C47.68655145 95.67216471 125.25917628 92.3338131 465.62060547 57.00219727 C472.07783491 55.98467665 478.53845429 54.98969969 485 54 C482.30070961 56.8533415 479.71426963 58.26359833 476.13671875 59.93359375 C474.95021729 60.49409424 473.76371582 61.05459473 472.54125977 61.63208008 C471.91261017 61.92627838 471.28396057 62.22047668 470.63626099 62.52359009 C460.6481424 67.20771536 450.75176489 72.03258552 441.0625 77.3125 C439.83503052 77.97560181 439.83503052 77.97560181 438.58276367 78.65209961 C434.90007988 80.68327248 431.36636433 82.73966548 427.93359375 85.17895508 C418.43232157 91.92082337 409.18410885 94.63136217 397.875 97.0625 C396.03115222 97.47833863 394.18757042 97.89535812 392.34423828 98.31347656 C291.84137079 120.79604282 186.65104656 130.79820364 72.85546875 131.16796875 C70.22414636 131.1712004 67.59282413 131.17456571 64.96150208 131.17805481 C59.47815664 131.18438064 53.9948232 131.18594495 48.51147461 131.18530273 C42.99614527 131.18477312 37.48088736 131.1917726 31.96557617 131.20581055 C-1.7341827 131.28955706 -35.34845373 130.96990966 -69 129 C-69.69078014 128.959995 -70.38156029 128.91999001 -71.09327316 128.87877274 C-79.17420421 128.4072555 -87.24413954 127.83782174 -95.3125 127.1875 C-96.37435516 127.10385193 -97.43621033 127.02020386 -98.53024292 126.934021 C-226.72170974 116.76660232 -226.72170974 116.76660232 -254 93 C-254.61230469 92.48050781 -255.22460938 91.96101562 -255.85546875 91.42578125 C-259.10760977 88.233176 -260.43459973 85.63930838 -260.75 81.0625 C-260.23025542 74.04064464 -256.80224658 70.43795453 -251.65625 65.9609375 C-225.96771821 46.55339288 -191.23513722 35.93605968 -161 26 C-159.99275879 25.66403809 -158.98551758 25.32807617 -157.94775391 24.98193359 C-107.01460635 8.10297324 -53.6231714 -0.46208487 0 0 Z " fill="#5282A1" transform="translate(437,832)"/>
<path d="M0 0 C0 0.99 0 1.98 0 3 C-1.46875 4.4375 -1.46875 4.4375 -3.5 6 C-10.22780176 11.62645343 -17.00784977 19.50402694 -18.37109375 28.4296875 C-18.5156372 33.7522875 -18.08959939 37.3476963 -14.5859375 41.48046875 C3.39999749 58.71329809 38.87127705 57.72606661 62 59.625 C64.53071053 59.83916173 67.06139063 60.05368337 69.59204102 60.26855469 C87.37652264 61.76396976 105.16894856 63.19259986 123 64 C124.34691422 64.06195053 124.34691422 64.06195053 125.72103882 64.12515259 C142.12974156 64.8632018 158.5127308 65.20361427 174.9375 65.1875 C176.09742462 65.18689575 177.25734924 65.1862915 178.4524231 65.18566895 C242.86696903 65.09569147 306.75299406 58.64876245 370.3125 48.4375 C371.4558078 48.25385895 372.5991156 48.0702179 373.77706909 47.88101196 C384.01195488 46.22774897 394.23585044 44.53623154 404.42333984 42.60986328 C405.6456279 42.37880386 406.86791595 42.14774445 408.12724304 41.90968323 C410.46702402 41.46355723 412.80566213 41.01137917 415.14289856 40.55210876 C429.24679696 37.84895388 429.24679696 37.84895388 433.95703125 40.94140625 C434.89933594 41.80636719 435.84164062 42.67132812 436.8125 43.5625 C437.86209334 44.49240143 438.91420698 45.41946548 439.96875 46.34375 C440.48308594 46.80007813 440.99742187 47.25640625 441.52734375 47.7265625 C455.23728259 59.58184118 473.68367819 69.62410602 491 75 C491 75.66 491 76.32 491 77 C407.97708009 100.96125541 323.19526983 114.41451684 237 120 C236.21256409 120.0540802 235.42512817 120.1081604 234.61383057 120.16387939 C214.45263717 121.51731658 194.19594921 121.24439392 174 121.25 C173.02923019 121.25058914 172.05846039 121.25117828 171.05827332 121.25178528 C142.70871715 121.26392804 114.49116448 121.09714927 86.25866699 118.22784424 C83.96654163 117.99662487 81.67349051 117.77799382 79.37988281 117.56201172 C-44.79076548 105.73929199 -44.79076548 105.73929199 -75.40625 69.2265625 C-79.22526799 63.89116972 -80.80753683 58.57565702 -80 52 C-77.89024877 45.06796026 -74.05534253 40.0755639 -69 35 C-68.37609375 34.35289063 -67.7521875 33.70578125 -67.109375 33.0390625 C-60.33812943 26.50041697 -52.3016723 22.27291956 -44 18 C-43.34 17.6596875 -42.68 17.319375 -42 16.96875 C-28.53367719 10.12871302 -14.31793478 4.77264493 0 0 Z " fill="#5282A1" transform="translate(374,1000)"/>
<path d="M0 0 C0.33 0 0.66 0 1 0 C0.52805147 18.62051492 -9.60246803 33.78566331 -22.44335938 46.52978516 C-30.99781022 54.60928688 -40.75264652 61.26842941 -51 67 C-52.16837402 67.65887207 -52.16837402 67.65887207 -53.36035156 68.33105469 C-69.00772211 77.06213376 -85.15626477 83.9246698 -102 90 C-103.05590332 90.38220703 -104.11180664 90.76441406 -105.19970703 91.15820312 C-197.57465941 123.9807618 -300.28939544 132.47711303 -527.89780909 141.25713813 C-532.59327888 141.2495996 -537.28866416 141.25232492 -541.98413086 141.26074219 C-640.06391124 141.43188923 -740.88487115 139.10513616 -895 98 C-895 97.34 -895 96.68 -895 96 C-893.75879395 96.18062988 -892.51758789 96.36125977 -891.23876953 96.54736328 C-824.82360491 106.15813744 -758.05974657 112.35393505 -691 115 C-689.97375645 115.04052994 -688.94751289 115.08105988 -687.89017105 115.12281799 C-669.45809748 115.8332837 -651.05905127 116.16358004 -632.61212492 116.16725707 C-630.53677975 116.16798602 -628.46144058 116.17015344 -626.38609695 116.17275429 C-619.03815563 116.18192033 -611.69023201 116.1861014 -604.34228516 116.18530273 C-598.40345531 116.18477348 -592.46469188 116.19176457 -586.52587891 116.20581055 C-549.30424449 116.29176269 -512.18579105 115.86855748 -475 114 C-474.20980469 113.96105495 -473.41960937 113.92210991 -472.60546875 113.88198471 C-463.16921405 113.41671466 -453.73992581 112.86908099 -444.3125 112.25 C-443.03721436 112.16763092 -441.76192871 112.08526184 -440.44799805 112.00039673 C-350.03343492 106.13217987 -259.41603586 95.57911919 -6 8 C-4.20794229 5.87437115 -2.57721258 3.73731229 -1.0234375 1.43359375 C-0.68570313 0.96050781 -0.34796875 0.48742188 0 0 Z " fill="#5282A1" transform="translate(1150,1358)"/>
<path d="M0 0 C2.45361809 2.17939018 4.85053289 4.40031981 7.21875 6.671875 C8.085 7.496875 8.95125 8.321875 9.84375 9.171875 C10.6275 9.996875 11.41125 10.821875 12.21875 11.671875 C12.81042969 12.2803125 13.40210938 12.88875 14.01171875 13.515625 C32.8624165 33.64248217 39.32645582 58.52830608 38.6015625 85.37890625 C37.19069146 114.86078691 21.62731177 142.0421743 1.68359375 163.0546875 C-0.28768295 165.14780222 -2.1473756 167.2631867 -3.96875 169.484375 C-7.21591133 173.30942097 -10.95502969 176.44211358 -14.78125 179.671875 C-15.67199219 180.46207031 -16.56273437 181.25226563 -17.48046875 182.06640625 C-67.26832712 225.92831115 -133.80113219 248.53463728 -196.78125 265.671875 C-196.78125 261.63940224 -195.3113128 260.35251795 -192.68994141 257.43359375 C-189.37014296 254.36942573 -185.51657224 252.60556748 -181.46875 250.671875 C-148.70164666 234.22031777 -116.68065883 213.4063323 -89.25683594 188.984375 C-87.92224433 187.79728623 -86.57510752 186.62433841 -85.2265625 185.453125 C-73.86417607 175.46912643 -62.90556648 164.7586319 -53.78125 152.671875 C-53.38631348 152.15334961 -52.99137695 151.63482422 -52.58447266 151.10058594 C-42.52683979 137.80804191 -34.04556314 123.54599119 -28.78125 107.671875 C-28.57097168 107.04297363 -28.36069336 106.41407227 -28.14404297 105.76611328 C-21.17221324 83.90117461 -23.16252164 60.67119471 -33.57617188 40.38647461 C-45.34281418 18.49674164 -65.04438909 3.95429576 -88.46875 -3.703125 C-112.32393802 -10.33445648 -134.37133178 -6.60004987 -157.5078125 0.71875 C-160.78125 1.671875 -160.78125 1.671875 -163.78125 1.671875 C-162.20977706 -2.18537677 -159.80520896 -4.5057633 -156.78125 -7.328125 C-156.28753906 -7.81539062 -155.79382813 -8.30265625 -155.28515625 -8.8046875 C-117.90334238 -43.76609616 -35.83712199 -29.99848975 0 0 Z " fill="#5282A1" transform="translate(1111.78125,845.328125)"/>
<path d="M0 0 C2.97 0 5.94 0 9 0 C9.79311367 1.72850345 10.5844259 3.45783354 11.375 5.1875 C11.81585937 6.15042969 12.25671875 7.11335938 12.7109375 8.10546875 C13.87069745 10.70965699 14.94125386 13.35313466 16 16 C17.98 10.72 19.96 5.44 22 0 C25.3 0 28.6 0 32 0 C32 9.24 32 18.48 32 28 C29.69 28 27.38 28 25 28 C24.67 23.38 24.34 18.76 24 14 C23.195625 16.124375 22.39125 18.24875 21.5625 20.4375 C19.125 26.875 19.125 26.875 18 28 C16.35 28 14.7 28 13 28 C11.02 22.39 9.04 16.78 7 11 C6.67 16.61 6.34 22.22 6 28 C4.02 28 2.04 28 0 28 C0 18.76 0 9.52 0 0 Z " fill="#5282A1" transform="translate(1156,1716)"/>
<path d="M0 0 C7.26 0 14.52 0 22 0 C22 1.65 22 3.3 22 5 C19.36 5 16.72 5 14 5 C14 12.59 14 20.18 14 28 C12.02 28 10.04 28 8 28 C8 20.41 8 12.82 8 5 C5.36 5 2.72 5 0 5 C0 3.35 0 1.7 0 0 Z " fill="#5281A1" transform="translate(1130,1716)"/>
</svg>
